<mxfile host="Electron" agent="Mozilla/5.0 (Windows NT 10.0; Win64; x64) AppleWebKit/537.36 (KHTML, like Gecko) draw.io/27.0.9 Chrome/134.0.6998.205 Electron/35.4.0 Safari/537.36" version="27.0.9" pages="5">
  <diagram name="Use Case" id="5xH1YoTmC_gLZmpMqHaO">
    <mxGraphModel dx="1340" dy="688" grid="1" gridSize="10" guides="1" tooltips="1" connect="1" arrows="1" fold="1" page="1" pageScale="1" pageWidth="827" pageHeight="1169" math="0" shadow="0">
      <root>
        <mxCell id="0" />
        <mxCell id="1" parent="0" />
        <mxCell id="UpIAHp95WQv5BrrR8KLI-68" value="" style="group" parent="1" vertex="1" connectable="0">
          <mxGeometry x="140" y="130" width="595" height="843" as="geometry" />
        </mxCell>
        <mxCell id="UpIAHp95WQv5BrrR8KLI-2" value="" style="rounded=0;whiteSpace=wrap;html=1;" parent="UpIAHp95WQv5BrrR8KLI-68" vertex="1">
          <mxGeometry x="5" y="55" width="590" height="680" as="geometry" />
        </mxCell>
        <mxCell id="UpIAHp95WQv5BrrR8KLI-4" value="" style="rounded=0;whiteSpace=wrap;html=1;movable=0;resizable=0;rotatable=0;deletable=0;editable=0;locked=1;connectable=0;" parent="UpIAHp95WQv5BrrR8KLI-68" vertex="1">
          <mxGeometry x="120" y="95" width="395" height="600" as="geometry" />
        </mxCell>
        <mxCell id="UpIAHp95WQv5BrrR8KLI-19" value="" style="edgeStyle=orthogonalEdgeStyle;rounded=0;orthogonalLoop=1;jettySize=auto;html=1;" parent="UpIAHp95WQv5BrrR8KLI-68" source="UpIAHp95WQv5BrrR8KLI-10" target="UpIAHp95WQv5BrrR8KLI-18" edge="1">
          <mxGeometry relative="1" as="geometry" />
        </mxCell>
        <mxCell id="UpIAHp95WQv5BrrR8KLI-10" value="&lt;font style=&quot;font-size: 20px;&quot;&gt;會員&lt;/font&gt;" style="shape=umlActor;verticalLabelPosition=bottom;verticalAlign=top;html=1;" parent="UpIAHp95WQv5BrrR8KLI-68" vertex="1">
          <mxGeometry x="45" y="560" width="30" height="60" as="geometry" />
        </mxCell>
        <mxCell id="UpIAHp95WQv5BrrR8KLI-18" value="&lt;font style=&quot;font-size: 20px;&quot;&gt;客戶&lt;/font&gt;" style="shape=umlActor;verticalLabelPosition=bottom;verticalAlign=top;html=1;" parent="UpIAHp95WQv5BrrR8KLI-68" vertex="1">
          <mxGeometry x="45" y="265" width="30" height="60" as="geometry" />
        </mxCell>
        <mxCell id="UpIAHp95WQv5BrrR8KLI-23" value="銀行" style="shape=umlActor;verticalLabelPosition=bottom;verticalAlign=top;html=1;outlineConnect=0;" parent="UpIAHp95WQv5BrrR8KLI-68" vertex="1">
          <mxGeometry x="545" y="392.5" width="30" height="60" as="geometry" />
        </mxCell>
        <mxCell id="UpIAHp95WQv5BrrR8KLI-24" value="✔️訂購商品" style="ellipse;whiteSpace=wrap;html=1;" parent="UpIAHp95WQv5BrrR8KLI-68" vertex="1">
          <mxGeometry x="145" y="155" width="80" height="50" as="geometry" />
        </mxCell>
        <mxCell id="UpIAHp95WQv5BrrR8KLI-25" value="&lt;span style=&quot;white-space:pre-wrap;&quot;&gt;修改訂購數量&lt;/span&gt;" style="ellipse;whiteSpace=wrap;html=1;" parent="UpIAHp95WQv5BrrR8KLI-68" vertex="1">
          <mxGeometry x="145" y="265" width="83" height="50" as="geometry" />
        </mxCell>
        <mxCell id="UpIAHp95WQv5BrrR8KLI-26" value="刪除訂購商品" style="ellipse;whiteSpace=wrap;html=1;" parent="UpIAHp95WQv5BrrR8KLI-68" vertex="1">
          <mxGeometry x="148" y="342.5" width="80" height="50" as="geometry" />
        </mxCell>
        <mxCell id="UpIAHp95WQv5BrrR8KLI-28" value="瀏覽商品" style="ellipse;whiteSpace=wrap;html=1;" parent="UpIAHp95WQv5BrrR8KLI-68" vertex="1">
          <mxGeometry x="285" y="105" width="80" height="50" as="geometry" />
        </mxCell>
        <mxCell id="UpIAHp95WQv5BrrR8KLI-29" value="搜尋商品" style="ellipse;whiteSpace=wrap;html=1;" parent="UpIAHp95WQv5BrrR8KLI-68" vertex="1">
          <mxGeometry x="415" y="155" width="80" height="50" as="geometry" />
        </mxCell>
        <mxCell id="UpIAHp95WQv5BrrR8KLI-30" value="檢視購物車" style="ellipse;whiteSpace=wrap;html=1;" parent="UpIAHp95WQv5BrrR8KLI-68" vertex="1">
          <mxGeometry x="285" y="205" width="80" height="50" as="geometry" />
        </mxCell>
        <mxCell id="UpIAHp95WQv5BrrR8KLI-33" value="" style="endArrow=classic;html=1;rounded=0;entryX=0.033;entryY=0.588;entryDx=0;entryDy=0;entryPerimeter=0;dashed=1;" parent="UpIAHp95WQv5BrrR8KLI-68" target="UpIAHp95WQv5BrrR8KLI-28" edge="1">
          <mxGeometry width="50" height="50" relative="1" as="geometry">
            <mxPoint x="225" y="180" as="sourcePoint" />
            <mxPoint x="385" y="165" as="targetPoint" />
            <Array as="points" />
          </mxGeometry>
        </mxCell>
        <mxCell id="UpIAHp95WQv5BrrR8KLI-36" value="&amp;lt;&amp;lt;include&amp;gt;&amp;gt;" style="edgeLabel;html=1;align=center;verticalAlign=middle;resizable=0;points=[];fontSize=10;" parent="UpIAHp95WQv5BrrR8KLI-33" vertex="1" connectable="0">
          <mxGeometry x="-0.1007" y="1" relative="1" as="geometry">
            <mxPoint x="2" y="-4" as="offset" />
          </mxGeometry>
        </mxCell>
        <mxCell id="UpIAHp95WQv5BrrR8KLI-35" value="" style="endArrow=classic;html=1;rounded=0;exitX=1;exitY=0.5;exitDx=0;exitDy=0;entryX=0;entryY=0.5;entryDx=0;entryDy=0;dashed=1;" parent="UpIAHp95WQv5BrrR8KLI-68" source="UpIAHp95WQv5BrrR8KLI-24" target="UpIAHp95WQv5BrrR8KLI-30" edge="1">
          <mxGeometry width="50" height="50" relative="1" as="geometry">
            <mxPoint x="265" y="215" as="sourcePoint" />
            <mxPoint x="315" y="165" as="targetPoint" />
          </mxGeometry>
        </mxCell>
        <mxCell id="UpIAHp95WQv5BrrR8KLI-37" value="&amp;lt;&amp;lt;include&amp;gt;&amp;gt;" style="edgeLabel;html=1;align=center;verticalAlign=middle;resizable=0;points=[];fontSize=10;" parent="UpIAHp95WQv5BrrR8KLI-35" vertex="1" connectable="0">
          <mxGeometry x="-0.0679" relative="1" as="geometry">
            <mxPoint x="2" y="2" as="offset" />
          </mxGeometry>
        </mxCell>
        <mxCell id="UpIAHp95WQv5BrrR8KLI-40" value="" style="endArrow=none;html=1;rounded=0;entryX=0;entryY=0.5;entryDx=0;entryDy=0;" parent="UpIAHp95WQv5BrrR8KLI-68" target="UpIAHp95WQv5BrrR8KLI-24" edge="1">
          <mxGeometry width="50" height="50" relative="1" as="geometry">
            <mxPoint x="75" y="285" as="sourcePoint" />
            <mxPoint x="120" y="235" as="targetPoint" />
          </mxGeometry>
        </mxCell>
        <mxCell id="UpIAHp95WQv5BrrR8KLI-41" value="" style="endArrow=none;html=1;rounded=0;entryX=0;entryY=0.5;entryDx=0;entryDy=0;" parent="UpIAHp95WQv5BrrR8KLI-68" target="UpIAHp95WQv5BrrR8KLI-30" edge="1">
          <mxGeometry width="50" height="50" relative="1" as="geometry">
            <mxPoint x="75" y="285" as="sourcePoint" />
            <mxPoint x="275" y="255" as="targetPoint" />
          </mxGeometry>
        </mxCell>
        <mxCell id="UpIAHp95WQv5BrrR8KLI-43" value="" style="endArrow=none;html=1;rounded=0;entryX=0;entryY=0.5;entryDx=0;entryDy=0;" parent="UpIAHp95WQv5BrrR8KLI-68" target="UpIAHp95WQv5BrrR8KLI-28" edge="1">
          <mxGeometry width="50" height="50" relative="1" as="geometry">
            <mxPoint x="75" y="285" as="sourcePoint" />
            <mxPoint x="275" y="255" as="targetPoint" />
            <Array as="points">
              <mxPoint x="135" y="130" />
            </Array>
          </mxGeometry>
        </mxCell>
        <mxCell id="UpIAHp95WQv5BrrR8KLI-44" value="" style="endArrow=classic;html=1;rounded=0;entryX=1;entryY=0.5;entryDx=0;entryDy=0;exitX=0;exitY=0.5;exitDx=0;exitDy=0;dashed=1;" parent="UpIAHp95WQv5BrrR8KLI-68" source="UpIAHp95WQv5BrrR8KLI-29" target="UpIAHp95WQv5BrrR8KLI-28" edge="1">
          <mxGeometry width="50" height="50" relative="1" as="geometry">
            <mxPoint x="225" y="305" as="sourcePoint" />
            <mxPoint x="275" y="255" as="targetPoint" />
          </mxGeometry>
        </mxCell>
        <mxCell id="UpIAHp95WQv5BrrR8KLI-46" value="&amp;lt;&amp;lt;extend&amp;gt;&amp;gt;" style="edgeLabel;html=1;align=center;verticalAlign=middle;resizable=0;points=[];" parent="UpIAHp95WQv5BrrR8KLI-44" vertex="1" connectable="0">
          <mxGeometry x="-0.0262" y="1" relative="1" as="geometry">
            <mxPoint as="offset" />
          </mxGeometry>
        </mxCell>
        <mxCell id="UpIAHp95WQv5BrrR8KLI-49" value="" style="endArrow=none;html=1;rounded=0;entryX=0;entryY=0.5;entryDx=0;entryDy=0;" parent="UpIAHp95WQv5BrrR8KLI-68" target="UpIAHp95WQv5BrrR8KLI-25" edge="1">
          <mxGeometry width="50" height="50" relative="1" as="geometry">
            <mxPoint x="75" y="285" as="sourcePoint" />
            <mxPoint x="135" y="315" as="targetPoint" />
          </mxGeometry>
        </mxCell>
        <mxCell id="UpIAHp95WQv5BrrR8KLI-50" value="" style="endArrow=none;html=1;rounded=0;entryX=0;entryY=0.5;entryDx=0;entryDy=0;" parent="UpIAHp95WQv5BrrR8KLI-68" target="UpIAHp95WQv5BrrR8KLI-26" edge="1">
          <mxGeometry width="50" height="50" relative="1" as="geometry">
            <mxPoint x="75" y="285" as="sourcePoint" />
            <mxPoint x="125" y="305" as="targetPoint" />
          </mxGeometry>
        </mxCell>
        <mxCell id="UpIAHp95WQv5BrrR8KLI-51" value="" style="endArrow=classic;html=1;rounded=0;exitX=1;exitY=0.5;exitDx=0;exitDy=0;dashed=1;" parent="UpIAHp95WQv5BrrR8KLI-68" source="UpIAHp95WQv5BrrR8KLI-25" edge="1">
          <mxGeometry width="50" height="50" relative="1" as="geometry">
            <mxPoint x="-85" y="345" as="sourcePoint" />
            <mxPoint x="300" y="250" as="targetPoint" />
          </mxGeometry>
        </mxCell>
        <mxCell id="UpIAHp95WQv5BrrR8KLI-52" value="&amp;lt;&amp;lt;include&lt;span style=&quot;background-color: light-dark(#ffffff, var(--ge-dark-color, #121212)); color: light-dark(rgb(0, 0, 0), rgb(255, 255, 255));&quot;&gt;&amp;gt;&amp;gt;&lt;/span&gt;" style="edgeLabel;html=1;align=center;verticalAlign=middle;resizable=0;points=[];" parent="UpIAHp95WQv5BrrR8KLI-51" vertex="1" connectable="0">
          <mxGeometry x="0.3588" y="-1" relative="1" as="geometry">
            <mxPoint x="-22" y="8" as="offset" />
          </mxGeometry>
        </mxCell>
        <mxCell id="UpIAHp95WQv5BrrR8KLI-53" value="" style="endArrow=classic;html=1;rounded=0;exitX=1;exitY=0.5;exitDx=0;exitDy=0;entryX=0.5;entryY=1;entryDx=0;entryDy=0;dashed=1;" parent="UpIAHp95WQv5BrrR8KLI-68" source="UpIAHp95WQv5BrrR8KLI-26" target="UpIAHp95WQv5BrrR8KLI-30" edge="1">
          <mxGeometry width="50" height="50" relative="1" as="geometry">
            <mxPoint x="255" y="365" as="sourcePoint" />
            <mxPoint x="305" y="315" as="targetPoint" />
          </mxGeometry>
        </mxCell>
        <mxCell id="UpIAHp95WQv5BrrR8KLI-54" value="&amp;lt;&amp;lt;include&amp;gt;&amp;gt;" style="edgeLabel;html=1;align=center;verticalAlign=middle;resizable=0;points=[];" parent="UpIAHp95WQv5BrrR8KLI-53" vertex="1" connectable="0">
          <mxGeometry x="-0.2297" y="-2" relative="1" as="geometry">
            <mxPoint as="offset" />
          </mxGeometry>
        </mxCell>
        <mxCell id="UpIAHp95WQv5BrrR8KLI-55" value="註冊會員" style="ellipse;whiteSpace=wrap;html=1;" parent="UpIAHp95WQv5BrrR8KLI-68" vertex="1">
          <mxGeometry x="148" y="420" width="80" height="50" as="geometry" />
        </mxCell>
        <mxCell id="UpIAHp95WQv5BrrR8KLI-56" value="登入系統" style="ellipse;whiteSpace=wrap;html=1;" parent="UpIAHp95WQv5BrrR8KLI-68" vertex="1">
          <mxGeometry x="148" y="525" width="80" height="50" as="geometry" />
        </mxCell>
        <mxCell id="UpIAHp95WQv5BrrR8KLI-57" value="" style="endArrow=none;html=1;rounded=0;exitX=0;exitY=0.5;exitDx=0;exitDy=0;entryX=1;entryY=0.3333333333333333;entryDx=0;entryDy=0;entryPerimeter=0;" parent="UpIAHp95WQv5BrrR8KLI-68" source="UpIAHp95WQv5BrrR8KLI-55" target="UpIAHp95WQv5BrrR8KLI-18" edge="1">
          <mxGeometry width="50" height="50" relative="1" as="geometry">
            <mxPoint x="245" y="315" as="sourcePoint" />
            <mxPoint x="60" y="265" as="targetPoint" />
          </mxGeometry>
        </mxCell>
        <mxCell id="UpIAHp95WQv5BrrR8KLI-58" value="" style="endArrow=none;html=1;rounded=0;entryX=0;entryY=0.5;entryDx=0;entryDy=0;exitX=1;exitY=0.3333333333333333;exitDx=0;exitDy=0;exitPerimeter=0;" parent="UpIAHp95WQv5BrrR8KLI-68" source="UpIAHp95WQv5BrrR8KLI-18" target="UpIAHp95WQv5BrrR8KLI-56" edge="1">
          <mxGeometry width="50" height="50" relative="1" as="geometry">
            <mxPoint x="65" y="265" as="sourcePoint" />
            <mxPoint x="295" y="385" as="targetPoint" />
          </mxGeometry>
        </mxCell>
        <mxCell id="UpIAHp95WQv5BrrR8KLI-59" value="" style="endArrow=classic;html=1;rounded=0;exitX=0.5;exitY=1;exitDx=0;exitDy=0;entryX=0.5;entryY=0;entryDx=0;entryDy=0;dashed=1;" parent="UpIAHp95WQv5BrrR8KLI-68" source="UpIAHp95WQv5BrrR8KLI-55" target="UpIAHp95WQv5BrrR8KLI-56" edge="1">
          <mxGeometry width="50" height="50" relative="1" as="geometry">
            <mxPoint x="235" y="545" as="sourcePoint" />
            <mxPoint x="285" y="495" as="targetPoint" />
          </mxGeometry>
        </mxCell>
        <mxCell id="UpIAHp95WQv5BrrR8KLI-60" value="&amp;lt;&amp;lt;extend&amp;gt;&amp;gt;" style="edgeLabel;html=1;align=center;verticalAlign=middle;resizable=0;points=[];" parent="UpIAHp95WQv5BrrR8KLI-59" vertex="1" connectable="0">
          <mxGeometry x="-0.4333" y="-1" relative="1" as="geometry">
            <mxPoint y="9" as="offset" />
          </mxGeometry>
        </mxCell>
        <mxCell id="UpIAHp95WQv5BrrR8KLI-61" value="結帳" style="ellipse;whiteSpace=wrap;html=1;" parent="UpIAHp95WQv5BrrR8KLI-68" vertex="1">
          <mxGeometry x="295" y="620" width="80" height="50" as="geometry" />
        </mxCell>
        <mxCell id="UpIAHp95WQv5BrrR8KLI-62" value="" style="endArrow=none;html=1;rounded=0;exitX=1;exitY=0.3333333333333333;exitDx=0;exitDy=0;exitPerimeter=0;" parent="UpIAHp95WQv5BrrR8KLI-68" source="UpIAHp95WQv5BrrR8KLI-10" edge="1">
          <mxGeometry width="50" height="50" relative="1" as="geometry">
            <mxPoint x="235" y="545" as="sourcePoint" />
            <mxPoint x="295" y="645" as="targetPoint" />
          </mxGeometry>
        </mxCell>
        <mxCell id="UpIAHp95WQv5BrrR8KLI-63" value="" style="endArrow=none;html=1;rounded=0;exitX=1;exitY=0.5;exitDx=0;exitDy=0;entryX=0;entryY=0.3333333333333333;entryDx=0;entryDy=0;entryPerimeter=0;" parent="UpIAHp95WQv5BrrR8KLI-68" source="UpIAHp95WQv5BrrR8KLI-61" target="UpIAHp95WQv5BrrR8KLI-23" edge="1">
          <mxGeometry width="50" height="50" relative="1" as="geometry">
            <mxPoint x="235" y="545" as="sourcePoint" />
            <mxPoint x="545" y="405" as="targetPoint" />
          </mxGeometry>
        </mxCell>
        <mxCell id="UpIAHp95WQv5BrrR8KLI-66" value="&amp;nbsp;問題 :&lt;br&gt;1.&amp;nbsp; 登入系統的extend箭頭應該要註冊會員&lt;br&gt;2. 或者說要雙箭頭?&lt;div&gt;3. 檢視購物車應該是訂購商品的extend?&lt;/div&gt;&lt;div&gt;4. 結帳應該要include登入系統，畢竟已經假設是會員的權限了。&lt;/div&gt;" style="text;html=1;align=left;verticalAlign=middle;resizable=0;points=[];autosize=1;strokeColor=none;fillColor=none;" parent="UpIAHp95WQv5BrrR8KLI-68" vertex="1">
          <mxGeometry x="20" y="753" width="360" height="90" as="geometry" />
        </mxCell>
        <mxCell id="UpIAHp95WQv5BrrR8KLI-67" value="&lt;h1&gt;&lt;font style=&quot;font-size: 23px;&quot;&gt;Use Case&lt;/font&gt;&lt;/h1&gt;" style="text;html=1;align=center;verticalAlign=middle;resizable=0;points=[];autosize=1;strokeColor=none;fillColor=none;" parent="UpIAHp95WQv5BrrR8KLI-68" vertex="1">
          <mxGeometry width="130" height="70" as="geometry" />
        </mxCell>
        <mxCell id="UpIAHp95WQv5BrrR8KLI-69" value="" style="group" parent="1" vertex="1" connectable="0">
          <mxGeometry x="950" y="120" width="595" height="843" as="geometry" />
        </mxCell>
        <mxCell id="UpIAHp95WQv5BrrR8KLI-70" value="" style="rounded=0;whiteSpace=wrap;html=1;" parent="UpIAHp95WQv5BrrR8KLI-69" vertex="1">
          <mxGeometry x="5" y="55" width="590" height="680" as="geometry" />
        </mxCell>
        <mxCell id="UpIAHp95WQv5BrrR8KLI-71" value="" style="rounded=0;whiteSpace=wrap;html=1;movable=0;resizable=0;rotatable=0;deletable=0;editable=0;locked=1;connectable=0;" parent="UpIAHp95WQv5BrrR8KLI-69" vertex="1">
          <mxGeometry x="120" y="95" width="395" height="600" as="geometry" />
        </mxCell>
        <mxCell id="UpIAHp95WQv5BrrR8KLI-72" value="" style="edgeStyle=orthogonalEdgeStyle;rounded=0;orthogonalLoop=1;jettySize=auto;html=1;" parent="UpIAHp95WQv5BrrR8KLI-69" source="UpIAHp95WQv5BrrR8KLI-73" target="UpIAHp95WQv5BrrR8KLI-74" edge="1">
          <mxGeometry relative="1" as="geometry" />
        </mxCell>
        <mxCell id="UpIAHp95WQv5BrrR8KLI-73" value="&lt;font style=&quot;font-size: 20px;&quot;&gt;會員&lt;/font&gt;" style="shape=umlActor;verticalLabelPosition=bottom;verticalAlign=top;html=1;" parent="UpIAHp95WQv5BrrR8KLI-69" vertex="1">
          <mxGeometry x="45" y="560" width="30" height="60" as="geometry" />
        </mxCell>
        <mxCell id="UpIAHp95WQv5BrrR8KLI-74" value="&lt;font style=&quot;font-size: 20px;&quot;&gt;客戶&lt;/font&gt;" style="shape=umlActor;verticalLabelPosition=bottom;verticalAlign=top;html=1;" parent="UpIAHp95WQv5BrrR8KLI-69" vertex="1">
          <mxGeometry x="45" y="265" width="30" height="60" as="geometry" />
        </mxCell>
        <mxCell id="UpIAHp95WQv5BrrR8KLI-75" value="銀行" style="shape=umlActor;verticalLabelPosition=bottom;verticalAlign=top;html=1;outlineConnect=0;" parent="UpIAHp95WQv5BrrR8KLI-69" vertex="1">
          <mxGeometry x="545" y="392.5" width="30" height="60" as="geometry" />
        </mxCell>
        <mxCell id="UpIAHp95WQv5BrrR8KLI-76" value="✔️訂購商品" style="ellipse;whiteSpace=wrap;html=1;" parent="UpIAHp95WQv5BrrR8KLI-69" vertex="1">
          <mxGeometry x="145" y="155" width="80" height="50" as="geometry" />
        </mxCell>
        <mxCell id="UpIAHp95WQv5BrrR8KLI-77" value="&lt;span style=&quot;white-space:pre-wrap;&quot;&gt;修改訂購數量&lt;/span&gt;" style="ellipse;whiteSpace=wrap;html=1;" parent="UpIAHp95WQv5BrrR8KLI-69" vertex="1">
          <mxGeometry x="145" y="265" width="83" height="50" as="geometry" />
        </mxCell>
        <mxCell id="UpIAHp95WQv5BrrR8KLI-78" value="刪除訂購商品" style="ellipse;whiteSpace=wrap;html=1;" parent="UpIAHp95WQv5BrrR8KLI-69" vertex="1">
          <mxGeometry x="148" y="342.5" width="80" height="50" as="geometry" />
        </mxCell>
        <mxCell id="UpIAHp95WQv5BrrR8KLI-79" value="瀏覽商品" style="ellipse;whiteSpace=wrap;html=1;" parent="UpIAHp95WQv5BrrR8KLI-69" vertex="1">
          <mxGeometry x="285" y="105" width="80" height="50" as="geometry" />
        </mxCell>
        <mxCell id="UpIAHp95WQv5BrrR8KLI-80" value="搜尋商品" style="ellipse;whiteSpace=wrap;html=1;" parent="UpIAHp95WQv5BrrR8KLI-69" vertex="1">
          <mxGeometry x="415" y="155" width="80" height="50" as="geometry" />
        </mxCell>
        <mxCell id="UpIAHp95WQv5BrrR8KLI-81" value="檢視購物車" style="ellipse;whiteSpace=wrap;html=1;" parent="UpIAHp95WQv5BrrR8KLI-69" vertex="1">
          <mxGeometry x="285" y="205" width="80" height="50" as="geometry" />
        </mxCell>
        <mxCell id="UpIAHp95WQv5BrrR8KLI-82" value="" style="endArrow=classic;html=1;rounded=0;entryX=0.033;entryY=0.588;entryDx=0;entryDy=0;entryPerimeter=0;dashed=1;" parent="UpIAHp95WQv5BrrR8KLI-69" target="UpIAHp95WQv5BrrR8KLI-79" edge="1">
          <mxGeometry width="50" height="50" relative="1" as="geometry">
            <mxPoint x="225" y="180" as="sourcePoint" />
            <mxPoint x="385" y="165" as="targetPoint" />
            <Array as="points" />
          </mxGeometry>
        </mxCell>
        <mxCell id="UpIAHp95WQv5BrrR8KLI-83" value="&amp;lt;&amp;lt;include&amp;gt;&amp;gt;" style="edgeLabel;html=1;align=center;verticalAlign=middle;resizable=0;points=[];fontSize=10;" parent="UpIAHp95WQv5BrrR8KLI-82" vertex="1" connectable="0">
          <mxGeometry x="-0.1007" y="1" relative="1" as="geometry">
            <mxPoint x="2" y="-4" as="offset" />
          </mxGeometry>
        </mxCell>
        <mxCell id="UpIAHp95WQv5BrrR8KLI-84" value="" style="endArrow=classic;html=1;rounded=0;exitX=0;exitY=0.5;exitDx=0;exitDy=0;dashed=1;entryX=1;entryY=0.5;entryDx=0;entryDy=0;strokeColor=#CC0000;" parent="UpIAHp95WQv5BrrR8KLI-69" source="UpIAHp95WQv5BrrR8KLI-81" target="UpIAHp95WQv5BrrR8KLI-76" edge="1">
          <mxGeometry width="50" height="50" relative="1" as="geometry">
            <mxPoint x="265" y="215" as="sourcePoint" />
            <mxPoint x="300" y="180" as="targetPoint" />
          </mxGeometry>
        </mxCell>
        <mxCell id="UpIAHp95WQv5BrrR8KLI-85" value="&amp;lt;&amp;lt;exclude&amp;gt;&amp;gt;" style="edgeLabel;html=1;align=center;verticalAlign=middle;resizable=0;points=[];fontSize=10;" parent="UpIAHp95WQv5BrrR8KLI-84" vertex="1" connectable="0">
          <mxGeometry x="-0.0679" relative="1" as="geometry">
            <mxPoint x="2" y="2" as="offset" />
          </mxGeometry>
        </mxCell>
        <mxCell id="UpIAHp95WQv5BrrR8KLI-86" value="" style="endArrow=none;html=1;rounded=0;entryX=0;entryY=0.5;entryDx=0;entryDy=0;" parent="UpIAHp95WQv5BrrR8KLI-69" target="UpIAHp95WQv5BrrR8KLI-76" edge="1">
          <mxGeometry width="50" height="50" relative="1" as="geometry">
            <mxPoint x="75" y="285" as="sourcePoint" />
            <mxPoint x="120" y="235" as="targetPoint" />
          </mxGeometry>
        </mxCell>
        <mxCell id="UpIAHp95WQv5BrrR8KLI-87" value="" style="endArrow=none;html=1;rounded=0;entryX=0;entryY=0.5;entryDx=0;entryDy=0;" parent="UpIAHp95WQv5BrrR8KLI-69" target="UpIAHp95WQv5BrrR8KLI-81" edge="1">
          <mxGeometry width="50" height="50" relative="1" as="geometry">
            <mxPoint x="75" y="285" as="sourcePoint" />
            <mxPoint x="275" y="255" as="targetPoint" />
          </mxGeometry>
        </mxCell>
        <mxCell id="UpIAHp95WQv5BrrR8KLI-88" value="" style="endArrow=none;html=1;rounded=0;entryX=0;entryY=0.5;entryDx=0;entryDy=0;" parent="UpIAHp95WQv5BrrR8KLI-69" target="UpIAHp95WQv5BrrR8KLI-79" edge="1">
          <mxGeometry width="50" height="50" relative="1" as="geometry">
            <mxPoint x="75" y="285" as="sourcePoint" />
            <mxPoint x="275" y="255" as="targetPoint" />
            <Array as="points">
              <mxPoint x="135" y="130" />
            </Array>
          </mxGeometry>
        </mxCell>
        <mxCell id="UpIAHp95WQv5BrrR8KLI-89" value="" style="endArrow=classic;html=1;rounded=0;entryX=1;entryY=0.5;entryDx=0;entryDy=0;exitX=0;exitY=0.5;exitDx=0;exitDy=0;dashed=1;" parent="UpIAHp95WQv5BrrR8KLI-69" source="UpIAHp95WQv5BrrR8KLI-80" target="UpIAHp95WQv5BrrR8KLI-79" edge="1">
          <mxGeometry width="50" height="50" relative="1" as="geometry">
            <mxPoint x="225" y="305" as="sourcePoint" />
            <mxPoint x="275" y="255" as="targetPoint" />
          </mxGeometry>
        </mxCell>
        <mxCell id="UpIAHp95WQv5BrrR8KLI-90" value="&amp;lt;&amp;lt;extend&amp;gt;&amp;gt;" style="edgeLabel;html=1;align=center;verticalAlign=middle;resizable=0;points=[];" parent="UpIAHp95WQv5BrrR8KLI-89" vertex="1" connectable="0">
          <mxGeometry x="-0.0262" y="1" relative="1" as="geometry">
            <mxPoint as="offset" />
          </mxGeometry>
        </mxCell>
        <mxCell id="UpIAHp95WQv5BrrR8KLI-91" value="" style="endArrow=none;html=1;rounded=0;entryX=0;entryY=0.5;entryDx=0;entryDy=0;" parent="UpIAHp95WQv5BrrR8KLI-69" target="UpIAHp95WQv5BrrR8KLI-77" edge="1">
          <mxGeometry width="50" height="50" relative="1" as="geometry">
            <mxPoint x="75" y="285" as="sourcePoint" />
            <mxPoint x="135" y="315" as="targetPoint" />
          </mxGeometry>
        </mxCell>
        <mxCell id="UpIAHp95WQv5BrrR8KLI-92" value="" style="endArrow=none;html=1;rounded=0;entryX=0;entryY=0.5;entryDx=0;entryDy=0;" parent="UpIAHp95WQv5BrrR8KLI-69" target="UpIAHp95WQv5BrrR8KLI-78" edge="1">
          <mxGeometry width="50" height="50" relative="1" as="geometry">
            <mxPoint x="75" y="285" as="sourcePoint" />
            <mxPoint x="125" y="305" as="targetPoint" />
          </mxGeometry>
        </mxCell>
        <mxCell id="UpIAHp95WQv5BrrR8KLI-93" value="" style="endArrow=classic;html=1;rounded=0;exitX=1;exitY=0.5;exitDx=0;exitDy=0;entryX=0;entryY=1;entryDx=0;entryDy=0;dashed=1;" parent="UpIAHp95WQv5BrrR8KLI-69" source="UpIAHp95WQv5BrrR8KLI-77" target="UpIAHp95WQv5BrrR8KLI-81" edge="1">
          <mxGeometry width="50" height="50" relative="1" as="geometry">
            <mxPoint x="-85" y="345" as="sourcePoint" />
            <mxPoint x="-35" y="295" as="targetPoint" />
          </mxGeometry>
        </mxCell>
        <mxCell id="UpIAHp95WQv5BrrR8KLI-94" value="&amp;lt;&amp;lt;include&lt;span style=&quot;background-color: light-dark(#ffffff, var(--ge-dark-color, #121212)); color: light-dark(rgb(0, 0, 0), rgb(255, 255, 255));&quot;&gt;&amp;gt;&amp;gt;&lt;/span&gt;" style="edgeLabel;html=1;align=center;verticalAlign=middle;resizable=0;points=[];" parent="UpIAHp95WQv5BrrR8KLI-93" vertex="1" connectable="0">
          <mxGeometry x="0.3588" y="-1" relative="1" as="geometry">
            <mxPoint x="-22" y="8" as="offset" />
          </mxGeometry>
        </mxCell>
        <mxCell id="UpIAHp95WQv5BrrR8KLI-95" value="" style="endArrow=classic;html=1;rounded=0;exitX=1;exitY=0.5;exitDx=0;exitDy=0;dashed=1;entryX=0.435;entryY=1;entryDx=0;entryDy=0;entryPerimeter=0;" parent="UpIAHp95WQv5BrrR8KLI-69" source="UpIAHp95WQv5BrrR8KLI-78" target="UpIAHp95WQv5BrrR8KLI-81" edge="1">
          <mxGeometry width="50" height="50" relative="1" as="geometry">
            <mxPoint x="255" y="365" as="sourcePoint" />
            <mxPoint x="300" y="250" as="targetPoint" />
          </mxGeometry>
        </mxCell>
        <mxCell id="UpIAHp95WQv5BrrR8KLI-96" value="&amp;lt;&amp;lt;include&amp;gt;&amp;gt;" style="edgeLabel;html=1;align=center;verticalAlign=middle;resizable=0;points=[];" parent="UpIAHp95WQv5BrrR8KLI-95" vertex="1" connectable="0">
          <mxGeometry x="-0.2297" y="-2" relative="1" as="geometry">
            <mxPoint as="offset" />
          </mxGeometry>
        </mxCell>
        <mxCell id="UpIAHp95WQv5BrrR8KLI-97" value="註冊會員" style="ellipse;whiteSpace=wrap;html=1;" parent="UpIAHp95WQv5BrrR8KLI-69" vertex="1">
          <mxGeometry x="148" y="420" width="80" height="50" as="geometry" />
        </mxCell>
        <mxCell id="UpIAHp95WQv5BrrR8KLI-98" value="登入系統" style="ellipse;whiteSpace=wrap;html=1;" parent="UpIAHp95WQv5BrrR8KLI-69" vertex="1">
          <mxGeometry x="148" y="525" width="80" height="50" as="geometry" />
        </mxCell>
        <mxCell id="UpIAHp95WQv5BrrR8KLI-99" value="" style="endArrow=none;html=1;rounded=0;exitX=0;exitY=0.5;exitDx=0;exitDy=0;entryX=1;entryY=0.3333333333333333;entryDx=0;entryDy=0;entryPerimeter=0;" parent="UpIAHp95WQv5BrrR8KLI-69" source="UpIAHp95WQv5BrrR8KLI-97" target="UpIAHp95WQv5BrrR8KLI-74" edge="1">
          <mxGeometry width="50" height="50" relative="1" as="geometry">
            <mxPoint x="245" y="315" as="sourcePoint" />
            <mxPoint x="60" y="265" as="targetPoint" />
          </mxGeometry>
        </mxCell>
        <mxCell id="UpIAHp95WQv5BrrR8KLI-100" value="" style="endArrow=none;html=1;rounded=0;entryX=0;entryY=0.5;entryDx=0;entryDy=0;exitX=1;exitY=0.3333333333333333;exitDx=0;exitDy=0;exitPerimeter=0;" parent="UpIAHp95WQv5BrrR8KLI-69" source="UpIAHp95WQv5BrrR8KLI-74" target="UpIAHp95WQv5BrrR8KLI-98" edge="1">
          <mxGeometry width="50" height="50" relative="1" as="geometry">
            <mxPoint x="65" y="265" as="sourcePoint" />
            <mxPoint x="295" y="385" as="targetPoint" />
          </mxGeometry>
        </mxCell>
        <mxCell id="UpIAHp95WQv5BrrR8KLI-101" value="" style="endArrow=classic;html=1;rounded=0;exitX=0.5;exitY=1;exitDx=0;exitDy=0;entryX=0.5;entryY=0;entryDx=0;entryDy=0;dashed=1;" parent="UpIAHp95WQv5BrrR8KLI-69" source="UpIAHp95WQv5BrrR8KLI-97" target="UpIAHp95WQv5BrrR8KLI-98" edge="1">
          <mxGeometry width="50" height="50" relative="1" as="geometry">
            <mxPoint x="235" y="545" as="sourcePoint" />
            <mxPoint x="285" y="495" as="targetPoint" />
          </mxGeometry>
        </mxCell>
        <mxCell id="UpIAHp95WQv5BrrR8KLI-102" value="&amp;lt;&amp;lt;extend&amp;gt;&amp;gt;" style="edgeLabel;html=1;align=center;verticalAlign=middle;resizable=0;points=[];" parent="UpIAHp95WQv5BrrR8KLI-101" vertex="1" connectable="0">
          <mxGeometry x="-0.4333" y="-1" relative="1" as="geometry">
            <mxPoint y="9" as="offset" />
          </mxGeometry>
        </mxCell>
        <mxCell id="UpIAHp95WQv5BrrR8KLI-103" value="結帳" style="ellipse;whiteSpace=wrap;html=1;" parent="UpIAHp95WQv5BrrR8KLI-69" vertex="1">
          <mxGeometry x="295" y="620" width="80" height="50" as="geometry" />
        </mxCell>
        <mxCell id="UpIAHp95WQv5BrrR8KLI-104" value="" style="endArrow=none;html=1;rounded=0;exitX=1;exitY=0.3333333333333333;exitDx=0;exitDy=0;exitPerimeter=0;" parent="UpIAHp95WQv5BrrR8KLI-69" source="UpIAHp95WQv5BrrR8KLI-73" edge="1">
          <mxGeometry width="50" height="50" relative="1" as="geometry">
            <mxPoint x="235" y="545" as="sourcePoint" />
            <mxPoint x="295" y="645" as="targetPoint" />
          </mxGeometry>
        </mxCell>
        <mxCell id="UpIAHp95WQv5BrrR8KLI-105" value="" style="endArrow=none;html=1;rounded=0;exitX=1;exitY=0.5;exitDx=0;exitDy=0;entryX=0;entryY=0.3333333333333333;entryDx=0;entryDy=0;entryPerimeter=0;" parent="UpIAHp95WQv5BrrR8KLI-69" source="UpIAHp95WQv5BrrR8KLI-103" target="UpIAHp95WQv5BrrR8KLI-75" edge="1">
          <mxGeometry width="50" height="50" relative="1" as="geometry">
            <mxPoint x="235" y="545" as="sourcePoint" />
            <mxPoint x="545" y="405" as="targetPoint" />
          </mxGeometry>
        </mxCell>
        <mxCell id="UpIAHp95WQv5BrrR8KLI-106" value="&amp;nbsp;問題 :&lt;br&gt;1. 登入系統的extend箭頭應該要註冊會員 --&amp;gt; 或者說通常都是先去登入頁面，沒帳號再註冊。&lt;br&gt;2. 或者說要雙箭頭?&lt;div&gt;3. 檢視購物車應該是訂購商品的extend?&lt;/div&gt;&lt;div&gt;4. 結帳應該要include登入系統，畢竟已經假設是會員的權限了。&lt;/div&gt;" style="text;html=1;align=left;verticalAlign=middle;resizable=0;points=[];autosize=1;strokeColor=none;fillColor=none;" parent="UpIAHp95WQv5BrrR8KLI-69" vertex="1">
          <mxGeometry x="20" y="753" width="510" height="90" as="geometry" />
        </mxCell>
        <mxCell id="UpIAHp95WQv5BrrR8KLI-107" value="&lt;h1&gt;&lt;font style=&quot;font-size: 23px;&quot;&gt;Use Case&lt;/font&gt;&lt;/h1&gt;" style="text;html=1;align=center;verticalAlign=middle;resizable=0;points=[];autosize=1;strokeColor=none;fillColor=none;" parent="UpIAHp95WQv5BrrR8KLI-69" vertex="1">
          <mxGeometry width="130" height="70" as="geometry" />
        </mxCell>
        <mxCell id="UpIAHp95WQv5BrrR8KLI-111" value="" style="endArrow=classic;html=1;rounded=0;entryX=1;entryY=0.5;entryDx=0;entryDy=0;dashed=1;strokeColor=#CC0000;" parent="UpIAHp95WQv5BrrR8KLI-69" target="UpIAHp95WQv5BrrR8KLI-98" edge="1">
          <mxGeometry width="50" height="50" relative="1" as="geometry">
            <mxPoint x="290" y="640" as="sourcePoint" />
            <mxPoint x="315" y="550" as="targetPoint" />
          </mxGeometry>
        </mxCell>
        <mxCell id="UpIAHp95WQv5BrrR8KLI-112" value="&amp;lt;&amp;lt;include&amp;gt;&amp;gt;" style="edgeLabel;html=1;align=center;verticalAlign=middle;resizable=0;points=[];" parent="UpIAHp95WQv5BrrR8KLI-111" vertex="1" connectable="0">
          <mxGeometry x="0.0184" y="2" relative="1" as="geometry">
            <mxPoint as="offset" />
          </mxGeometry>
        </mxCell>
      </root>
    </mxGraphModel>
  </diagram>
  <diagram id="rDvMGIHcpKWW-KB-ijlX" name="活動圖">
    <mxGraphModel dx="1058" dy="1776" grid="1" gridSize="10" guides="1" tooltips="1" connect="1" arrows="1" fold="1" page="1" pageScale="1" pageWidth="827" pageHeight="1169" math="0" shadow="0">
      <root>
        <mxCell id="0" />
        <mxCell id="1" parent="0" />
        <mxCell id="3tSztlcjyRbW0gM3vj72-17" style="edgeStyle=orthogonalEdgeStyle;rounded=0;orthogonalLoop=1;jettySize=auto;html=1;entryX=0.5;entryY=0;entryDx=0;entryDy=0;" edge="1" parent="1" source="3tSztlcjyRbW0gM3vj72-1" target="3tSztlcjyRbW0gM3vj72-2">
          <mxGeometry relative="1" as="geometry" />
        </mxCell>
        <mxCell id="3tSztlcjyRbW0gM3vj72-1" value="顯示目錄清單&lt;br&gt;選擇欲瀏覽&lt;div&gt;的商品目錄&lt;/div&gt;" style="rounded=1;whiteSpace=wrap;html=1;" vertex="1" parent="1">
          <mxGeometry x="360" y="40" width="120" height="60" as="geometry" />
        </mxCell>
        <mxCell id="3tSztlcjyRbW0gM3vj72-18" style="edgeStyle=orthogonalEdgeStyle;rounded=0;orthogonalLoop=1;jettySize=auto;html=1;entryX=0.5;entryY=0;entryDx=0;entryDy=0;" edge="1" parent="1" source="3tSztlcjyRbW0gM3vj72-2" target="3tSztlcjyRbW0gM3vj72-3">
          <mxGeometry relative="1" as="geometry" />
        </mxCell>
        <mxCell id="3tSztlcjyRbW0gM3vj72-2" value="查詢該目錄下的&lt;br&gt;商品資料" style="rounded=1;whiteSpace=wrap;html=1;" vertex="1" parent="1">
          <mxGeometry x="360" y="160" width="120" height="60" as="geometry" />
        </mxCell>
        <mxCell id="3tSztlcjyRbW0gM3vj72-19" style="edgeStyle=orthogonalEdgeStyle;rounded=0;orthogonalLoop=1;jettySize=auto;html=1;entryX=0.5;entryY=0;entryDx=0;entryDy=0;" edge="1" parent="1" source="3tSztlcjyRbW0gM3vj72-3" target="3tSztlcjyRbW0gM3vj72-5">
          <mxGeometry relative="1" as="geometry">
            <mxPoint x="420" y="390" as="targetPoint" />
          </mxGeometry>
        </mxCell>
        <mxCell id="3tSztlcjyRbW0gM3vj72-3" value="顯示該目錄下&lt;br&gt;的商品清單" style="rounded=1;whiteSpace=wrap;html=1;" vertex="1" parent="1">
          <mxGeometry x="360" y="280" width="120" height="60" as="geometry" />
        </mxCell>
        <mxCell id="3tSztlcjyRbW0gM3vj72-20" style="edgeStyle=orthogonalEdgeStyle;rounded=0;orthogonalLoop=1;jettySize=auto;html=1;entryX=0.5;entryY=0;entryDx=0;entryDy=0;" edge="1" parent="1" source="3tSztlcjyRbW0gM3vj72-5" target="3tSztlcjyRbW0gM3vj72-6">
          <mxGeometry relative="1" as="geometry" />
        </mxCell>
        <mxCell id="3tSztlcjyRbW0gM3vj72-5" value="點選有興趣的商品" style="rounded=1;whiteSpace=wrap;html=1;" vertex="1" parent="1">
          <mxGeometry x="360" y="400" width="120" height="60" as="geometry" />
        </mxCell>
        <mxCell id="3tSztlcjyRbW0gM3vj72-21" style="edgeStyle=orthogonalEdgeStyle;rounded=0;orthogonalLoop=1;jettySize=auto;html=1;entryX=0.5;entryY=0;entryDx=0;entryDy=0;" edge="1" parent="1" source="3tSztlcjyRbW0gM3vj72-6" target="3tSztlcjyRbW0gM3vj72-7">
          <mxGeometry relative="1" as="geometry" />
        </mxCell>
        <mxCell id="3tSztlcjyRbW0gM3vj72-6" value="查詢商品詳細資料" style="rounded=1;whiteSpace=wrap;html=1;" vertex="1" parent="1">
          <mxGeometry x="360" y="520" width="120" height="60" as="geometry" />
        </mxCell>
        <mxCell id="3tSztlcjyRbW0gM3vj72-22" style="edgeStyle=orthogonalEdgeStyle;rounded=0;orthogonalLoop=1;jettySize=auto;html=1;entryX=0.5;entryY=0;entryDx=0;entryDy=0;" edge="1" parent="1" source="3tSztlcjyRbW0gM3vj72-7" target="3tSztlcjyRbW0gM3vj72-8">
          <mxGeometry relative="1" as="geometry" />
        </mxCell>
        <mxCell id="3tSztlcjyRbW0gM3vj72-7" value="顯示商品詳細資料" style="rounded=1;whiteSpace=wrap;html=1;" vertex="1" parent="1">
          <mxGeometry x="360" y="640" width="120" height="60" as="geometry" />
        </mxCell>
        <mxCell id="3tSztlcjyRbW0gM3vj72-23" style="edgeStyle=orthogonalEdgeStyle;rounded=0;orthogonalLoop=1;jettySize=auto;html=1;entryX=0.5;entryY=0;entryDx=0;entryDy=0;" edge="1" parent="1" source="3tSztlcjyRbW0gM3vj72-8" target="3tSztlcjyRbW0gM3vj72-9">
          <mxGeometry relative="1" as="geometry" />
        </mxCell>
        <mxCell id="3tSztlcjyRbW0gM3vj72-8" value="輸入數量&lt;br&gt;點擊訂購按鈕" style="rounded=1;whiteSpace=wrap;html=1;" vertex="1" parent="1">
          <mxGeometry x="360" y="760" width="120" height="60" as="geometry" />
        </mxCell>
        <mxCell id="3tSztlcjyRbW0gM3vj72-24" style="edgeStyle=orthogonalEdgeStyle;rounded=0;orthogonalLoop=1;jettySize=auto;html=1;entryX=0.5;entryY=0;entryDx=0;entryDy=0;" edge="1" parent="1" source="3tSztlcjyRbW0gM3vj72-9" target="3tSztlcjyRbW0gM3vj72-10">
          <mxGeometry relative="1" as="geometry" />
        </mxCell>
        <mxCell id="3tSztlcjyRbW0gM3vj72-9" value="將商品放入購物車" style="rounded=1;whiteSpace=wrap;html=1;" vertex="1" parent="1">
          <mxGeometry x="360" y="880" width="120" height="60" as="geometry" />
        </mxCell>
        <mxCell id="3tSztlcjyRbW0gM3vj72-25" style="edgeStyle=orthogonalEdgeStyle;rounded=0;orthogonalLoop=1;jettySize=auto;html=1;entryX=0.5;entryY=0;entryDx=0;entryDy=0;" edge="1" parent="1" source="3tSztlcjyRbW0gM3vj72-10" target="3tSztlcjyRbW0gM3vj72-11">
          <mxGeometry relative="1" as="geometry" />
        </mxCell>
        <mxCell id="3tSztlcjyRbW0gM3vj72-10" value="檢視購物車資料&lt;br&gt;並執行數量、金額計算" style="rounded=1;whiteSpace=wrap;html=1;" vertex="1" parent="1">
          <mxGeometry x="360" y="1000" width="120" height="60" as="geometry" />
        </mxCell>
        <mxCell id="3tSztlcjyRbW0gM3vj72-43" style="edgeStyle=orthogonalEdgeStyle;rounded=0;orthogonalLoop=1;jettySize=auto;html=1;entryX=0.5;entryY=0;entryDx=0;entryDy=0;" edge="1" parent="1" source="3tSztlcjyRbW0gM3vj72-11" target="3tSztlcjyRbW0gM3vj72-44">
          <mxGeometry relative="1" as="geometry">
            <mxPoint x="420" y="1230" as="targetPoint" />
          </mxGeometry>
        </mxCell>
        <mxCell id="3tSztlcjyRbW0gM3vj72-11" value="顯示購物車內容" style="rounded=1;whiteSpace=wrap;html=1;" vertex="1" parent="1">
          <mxGeometry x="360" y="1120" width="120" height="60" as="geometry" />
        </mxCell>
        <mxCell id="3tSztlcjyRbW0gM3vj72-12" value="&lt;div style=&quot;&quot;&gt;&lt;span style=&quot;background-color: transparent; color: light-dark(rgb(0, 0, 0), rgb(255, 255, 255));&quot;&gt;輸入：&lt;/span&gt;&lt;/div&gt;目錄名稱" style="shape=note;whiteSpace=wrap;html=1;backgroundOutline=1;darkOpacity=0.05;align=left;" vertex="1" parent="1">
          <mxGeometry x="530" y="40" width="130" height="60" as="geometry" />
        </mxCell>
        <mxCell id="3tSztlcjyRbW0gM3vj72-13" value="" style="endArrow=none;html=1;rounded=0;exitX=1;exitY=0.5;exitDx=0;exitDy=0;entryX=0;entryY=0.5;entryDx=0;entryDy=0;entryPerimeter=0;dashed=1;" edge="1" parent="1" source="3tSztlcjyRbW0gM3vj72-1" target="3tSztlcjyRbW0gM3vj72-12">
          <mxGeometry width="50" height="50" relative="1" as="geometry">
            <mxPoint x="360" y="-20" as="sourcePoint" />
            <mxPoint x="410" y="-70" as="targetPoint" />
          </mxGeometry>
        </mxCell>
        <mxCell id="3tSztlcjyRbW0gM3vj72-16" style="edgeStyle=orthogonalEdgeStyle;rounded=0;orthogonalLoop=1;jettySize=auto;html=1;exitX=0.5;exitY=1;exitDx=0;exitDy=0;entryX=0.5;entryY=0;entryDx=0;entryDy=0;" edge="1" parent="1" source="3tSztlcjyRbW0gM3vj72-14" target="3tSztlcjyRbW0gM3vj72-1">
          <mxGeometry relative="1" as="geometry" />
        </mxCell>
        <mxCell id="3tSztlcjyRbW0gM3vj72-14" value="" style="ellipse;whiteSpace=wrap;html=1;aspect=fixed;" vertex="1" parent="1">
          <mxGeometry x="400" y="-40" width="40" height="40" as="geometry" />
        </mxCell>
        <mxCell id="3tSztlcjyRbW0gM3vj72-26" value="&lt;div style=&quot;&quot;&gt;輸出：&lt;/div&gt;&lt;div style=&quot;&quot;&gt;商品編號&lt;/div&gt;&lt;div style=&quot;&quot;&gt;商品名稱&lt;/div&gt;&lt;div style=&quot;&quot;&gt;單價&lt;/div&gt;&lt;div style=&quot;&quot;&gt;數量&lt;/div&gt;&lt;div style=&quot;&quot;&gt;小計&lt;/div&gt;&lt;div style=&quot;&quot;&gt;總金額&lt;/div&gt;" style="shape=note;whiteSpace=wrap;html=1;backgroundOutline=1;darkOpacity=0.05;align=left;" vertex="1" parent="1">
          <mxGeometry x="530" y="1120" width="130" height="110" as="geometry" />
        </mxCell>
        <mxCell id="3tSztlcjyRbW0gM3vj72-27" value="&lt;div style=&quot;&quot;&gt;&lt;span style=&quot;background-color: transparent; color: light-dark(rgb(0, 0, 0), rgb(255, 255, 255));&quot;&gt;輸入：&lt;/span&gt;&lt;/div&gt;商品編號" style="shape=note;whiteSpace=wrap;html=1;backgroundOutline=1;darkOpacity=0.05;align=left;" vertex="1" parent="1">
          <mxGeometry x="530" y="400" width="130" height="60" as="geometry" />
        </mxCell>
        <mxCell id="3tSztlcjyRbW0gM3vj72-28" value="&lt;div style=&quot;&quot;&gt;&lt;span style=&quot;background-color: transparent; color: light-dark(rgb(0, 0, 0), rgb(255, 255, 255));&quot;&gt;輸入：&lt;/span&gt;&lt;/div&gt;數量" style="shape=note;whiteSpace=wrap;html=1;backgroundOutline=1;darkOpacity=0.05;align=left;" vertex="1" parent="1">
          <mxGeometry x="530" y="760" width="130" height="60" as="geometry" />
        </mxCell>
        <mxCell id="3tSztlcjyRbW0gM3vj72-30" value="&lt;div style=&quot;&quot;&gt;輸出：&lt;/div&gt;&lt;div style=&quot;&quot;&gt;商品編號&lt;/div&gt;&lt;div style=&quot;&quot;&gt;商品名稱&lt;/div&gt;&lt;div style=&quot;&quot;&gt;單價&lt;/div&gt;&lt;div style=&quot;&quot;&gt;商品描述&lt;/div&gt;&lt;div style=&quot;&quot;&gt;供應商&lt;/div&gt;" style="shape=note;whiteSpace=wrap;html=1;backgroundOutline=1;darkOpacity=0.05;align=left;" vertex="1" parent="1">
          <mxGeometry x="180" y="640" width="130" height="110" as="geometry" />
        </mxCell>
        <mxCell id="3tSztlcjyRbW0gM3vj72-34" value="&lt;div style=&quot;&quot;&gt;&lt;span style=&quot;background-color: transparent; color: light-dark(rgb(0, 0, 0), rgb(255, 255, 255));&quot;&gt;輸出：&lt;/span&gt;&lt;/div&gt;商品編號&lt;br&gt;商品名稱&lt;br&gt;單價" style="shape=note;whiteSpace=wrap;html=1;backgroundOutline=1;darkOpacity=0.05;align=left;" vertex="1" parent="1">
          <mxGeometry x="530" y="280" width="130" height="60" as="geometry" />
        </mxCell>
        <mxCell id="3tSztlcjyRbW0gM3vj72-35" value="" style="endArrow=none;html=1;rounded=0;exitX=1;exitY=0.5;exitDx=0;exitDy=0;entryX=0;entryY=0.5;entryDx=0;entryDy=0;entryPerimeter=0;dashed=1;" edge="1" parent="1">
          <mxGeometry width="50" height="50" relative="1" as="geometry">
            <mxPoint x="480" y="309.40999999999997" as="sourcePoint" />
            <mxPoint x="530" y="309.40999999999997" as="targetPoint" />
          </mxGeometry>
        </mxCell>
        <mxCell id="3tSztlcjyRbW0gM3vj72-36" value="" style="endArrow=none;html=1;rounded=0;exitX=1;exitY=0.5;exitDx=0;exitDy=0;entryX=0;entryY=0.5;entryDx=0;entryDy=0;entryPerimeter=0;dashed=1;" edge="1" parent="1">
          <mxGeometry width="50" height="50" relative="1" as="geometry">
            <mxPoint x="480" y="429.40999999999997" as="sourcePoint" />
            <mxPoint x="530" y="429.40999999999997" as="targetPoint" />
          </mxGeometry>
        </mxCell>
        <mxCell id="3tSztlcjyRbW0gM3vj72-38" value="" style="endArrow=none;html=1;rounded=0;exitX=1;exitY=0.5;exitDx=0;exitDy=0;entryX=0;entryY=0.5;entryDx=0;entryDy=0;entryPerimeter=0;dashed=1;" edge="1" parent="1">
          <mxGeometry width="50" height="50" relative="1" as="geometry">
            <mxPoint x="310" y="679.41" as="sourcePoint" />
            <mxPoint x="360" y="679.41" as="targetPoint" />
          </mxGeometry>
        </mxCell>
        <mxCell id="3tSztlcjyRbW0gM3vj72-39" value="" style="endArrow=none;html=1;rounded=0;exitX=1;exitY=0.5;exitDx=0;exitDy=0;entryX=0;entryY=0.5;entryDx=0;entryDy=0;entryPerimeter=0;dashed=1;" edge="1" parent="1">
          <mxGeometry width="50" height="50" relative="1" as="geometry">
            <mxPoint x="480" y="789.41" as="sourcePoint" />
            <mxPoint x="530" y="789.41" as="targetPoint" />
          </mxGeometry>
        </mxCell>
        <mxCell id="3tSztlcjyRbW0gM3vj72-42" value="" style="endArrow=none;html=1;rounded=0;exitX=1;exitY=0.5;exitDx=0;exitDy=0;entryX=0;entryY=0.5;entryDx=0;entryDy=0;entryPerimeter=0;dashed=1;" edge="1" parent="1">
          <mxGeometry width="50" height="50" relative="1" as="geometry">
            <mxPoint x="480" y="1149.4099999999999" as="sourcePoint" />
            <mxPoint x="530" y="1149.4099999999999" as="targetPoint" />
          </mxGeometry>
        </mxCell>
        <mxCell id="3tSztlcjyRbW0gM3vj72-45" style="edgeStyle=orthogonalEdgeStyle;rounded=0;orthogonalLoop=1;jettySize=auto;html=1;" edge="1" parent="1" source="3tSztlcjyRbW0gM3vj72-44">
          <mxGeometry relative="1" as="geometry">
            <mxPoint x="420" y="1330" as="targetPoint" />
          </mxGeometry>
        </mxCell>
        <mxCell id="3tSztlcjyRbW0gM3vj72-49" style="edgeStyle=orthogonalEdgeStyle;rounded=0;orthogonalLoop=1;jettySize=auto;html=1;entryX=0;entryY=0.5;entryDx=0;entryDy=0;" edge="1" parent="1" source="3tSztlcjyRbW0gM3vj72-44" target="3tSztlcjyRbW0gM3vj72-3">
          <mxGeometry relative="1" as="geometry">
            <mxPoint x="140" y="310" as="targetPoint" />
            <Array as="points">
              <mxPoint x="90" y="1265" />
              <mxPoint x="90" y="310" />
            </Array>
          </mxGeometry>
        </mxCell>
        <mxCell id="3tSztlcjyRbW0gM3vj72-44" value="" style="rhombus;whiteSpace=wrap;html=1;" vertex="1" parent="1">
          <mxGeometry x="395" y="1240" width="50" height="50" as="geometry" />
        </mxCell>
        <mxCell id="3tSztlcjyRbW0gM3vj72-47" value="" style="ellipse;whiteSpace=wrap;html=1;aspect=fixed;" vertex="1" parent="1">
          <mxGeometry x="400" y="1340" width="40" height="40" as="geometry" />
        </mxCell>
        <mxCell id="3tSztlcjyRbW0gM3vj72-48" value="" style="ellipse;whiteSpace=wrap;html=1;aspect=fixed;" vertex="1" parent="1">
          <mxGeometry x="405" y="1345" width="30" height="30" as="geometry" />
        </mxCell>
      </root>
    </mxGraphModel>
  </diagram>
  <diagram id="iPGL5W-LnAF80-0CNhNb" name="類別圖">
    <mxGraphModel dx="1853" dy="689" grid="1" gridSize="10" guides="1" tooltips="1" connect="1" arrows="1" fold="1" page="1" pageScale="1" pageWidth="827" pageHeight="1169" math="0" shadow="0">
      <root>
        <mxCell id="0" />
        <mxCell id="1" parent="0" />
        <mxCell id="T4QaXuFwww_giVzhhJs4-2" value="&lt;p style=&quot;margin:0px;margin-top:4px;text-align:center;&quot;&gt;&lt;b&gt;訂單控制&lt;/b&gt;&lt;/p&gt;&lt;hr size=&quot;1&quot; style=&quot;border-style:solid;&quot;&gt;&lt;p style=&quot;margin:0px;margin-left:4px;&quot;&gt;- 訂單編號 : String&lt;/p&gt;&lt;p style=&quot;margin:0px;margin-left:4px;&quot;&gt;- ATM轉帳帳號 : String&lt;/p&gt;&lt;p style=&quot;margin:0px;margin-left:4px;&quot;&gt;- 客戶編號 : String&lt;/p&gt;&lt;p style=&quot;margin:0px;margin-left:4px;&quot;&gt;- 客戶姓名&lt;span style=&quot;background-color: transparent; color: light-dark(rgb(0, 0, 0), rgb(255, 255, 255));&quot;&gt;&amp;nbsp;&lt;/span&gt;&lt;span style=&quot;background-color: transparent; color: light-dark(rgb(0, 0, 0), rgb(255, 255, 255));&quot;&gt;: String&lt;/span&gt;&lt;/p&gt;&lt;p style=&quot;margin:0px;margin-left:4px;&quot;&gt;&lt;span style=&quot;background-color: transparent; color: light-dark(rgb(0, 0, 0), rgb(255, 255, 255));&quot;&gt;- 電話&lt;/span&gt;&lt;span style=&quot;background-color: transparent; color: light-dark(rgb(0, 0, 0), rgb(255, 255, 255));&quot;&gt;&amp;nbsp;&lt;/span&gt;&lt;span style=&quot;background-color: transparent; color: light-dark(rgb(0, 0, 0), rgb(255, 255, 255));&quot;&gt;: String&lt;/span&gt;&lt;/p&gt;&lt;p style=&quot;margin:0px;margin-left:4px;&quot;&gt;- 地址&lt;span style=&quot;background-color: transparent; color: light-dark(rgb(0, 0, 0), rgb(255, 255, 255));&quot;&gt;&amp;nbsp;&lt;/span&gt;&lt;span style=&quot;background-color: transparent; color: light-dark(rgb(0, 0, 0), rgb(255, 255, 255));&quot;&gt;: String&lt;/span&gt;&lt;/p&gt;&lt;hr size=&quot;1&quot; style=&quot;border-style:solid;&quot;&gt;&lt;p style=&quot;margin:0px;margin-left:4px;&quot;&gt;+ 結帳商品() : void&lt;/p&gt;&lt;p style=&quot;margin:0px;margin-left:4px;&quot;&gt;+ 處理訂單() : void&lt;/p&gt;" style="verticalAlign=top;align=left;overflow=fill;html=1;whiteSpace=wrap;" parent="1" vertex="1">
          <mxGeometry x="-390" y="60" width="140" height="160" as="geometry" />
        </mxCell>
        <mxCell id="T4QaXuFwww_giVzhhJs4-3" value="&lt;p style=&quot;margin:0px;margin-top:4px;text-align:center;&quot;&gt;&lt;b&gt;商品資料控制&lt;/b&gt;&lt;/p&gt;&lt;hr size=&quot;1&quot; style=&quot;border-style:solid;&quot;&gt;&lt;p style=&quot;margin:0px;margin-left:4px;&quot;&gt;- 目錄內容 : java.util.Vector&lt;/p&gt;&lt;p style=&quot;margin:0px;margin-left:4px;&quot;&gt;- 商品內容 :&amp;nbsp;&lt;span style=&quot;background-color: transparent; color: light-dark(rgb(0, 0, 0), rgb(255, 255, 255));&quot;&gt;java.util.Vector&lt;/span&gt;&lt;/p&gt;&lt;hr size=&quot;1&quot; style=&quot;border-style:solid;&quot;&gt;&lt;p style=&quot;margin:0px;margin-left:4px;&quot;&gt;+ 取得商品目錄(目錄編號 : String) : void&lt;/p&gt;&lt;p style=&quot;margin:0px;margin-left:4px;&quot;&gt;+ 取得商品資料(商品&lt;span style=&quot;background-color: transparent; color: light-dark(rgb(0, 0, 0), rgb(255, 255, 255));&quot;&gt;編號 : String&lt;/span&gt;&lt;span style=&quot;background-color: transparent; color: light-dark(rgb(0, 0, 0), rgb(255, 255, 255));&quot;&gt;) : void&lt;/span&gt;&lt;/p&gt;" style="verticalAlign=top;align=left;overflow=fill;html=1;whiteSpace=wrap;" parent="1" vertex="1">
          <mxGeometry x="-230" y="60" width="230" height="110" as="geometry" />
        </mxCell>
        <mxCell id="px66vnaE_Js9J5YGRRfs-1" value="&lt;p style=&quot;margin:0px;margin-top:4px;text-align:center;&quot;&gt;&lt;b&gt;購物車控制&lt;/b&gt;&lt;/p&gt;&lt;hr size=&quot;1&quot; style=&quot;border-style:solid;&quot;&gt;&lt;p style=&quot;margin:0px;margin-left:4px;&quot;&gt;- 購物車內容編號:&lt;span style=&quot;background-color: transparent; color: light-dark(rgb(0, 0, 0), rgb(255, 255, 255));&quot;&gt;&amp;nbsp;&lt;/span&gt;&lt;span style=&quot;background-color: transparent; color: light-dark(rgb(0, 0, 0), rgb(255, 255, 255));&quot;&gt;java.util.Vector&lt;/span&gt;&lt;/p&gt;&lt;hr size=&quot;1&quot; style=&quot;border-style:solid;&quot;&gt;&lt;p style=&quot;margin:0px;margin-left:4px;&quot;&gt;+ 取得&lt;span style=&quot;background-color: transparent; color: light-dark(rgb(0, 0, 0), rgb(255, 255, 255));&quot;&gt;購物車內容&lt;/span&gt;&lt;span style=&quot;background-color: transparent; color: light-dark(rgb(0, 0, 0), rgb(255, 255, 255));&quot;&gt;() : void&lt;/span&gt;&lt;/p&gt;&lt;p style=&quot;margin:0px;margin-left:4px;&quot;&gt;+ 訂購(編號 : String) : void&lt;/p&gt;&lt;p style=&quot;margin:0px;margin-left:4px;&quot;&gt;+ 修改訂購數量(&lt;span style=&quot;background-color: transparent; color: light-dark(rgb(0, 0, 0), rgb(255, 255, 255));&quot;&gt;編號 : String&lt;/span&gt;&lt;span style=&quot;background-color: transparent; color: light-dark(rgb(0, 0, 0), rgb(255, 255, 255));&quot;&gt;) : void&lt;/span&gt;&lt;/p&gt;&lt;p style=&quot;margin:0px;margin-left:4px;&quot;&gt;&lt;span style=&quot;background-color: transparent; color: light-dark(rgb(0, 0, 0), rgb(255, 255, 255));&quot;&gt;+ 刪除訂購項目(編號 : string) : void&lt;/span&gt;&lt;/p&gt;&lt;p style=&quot;margin:0px;margin-left:4px;&quot;&gt;&lt;span style=&quot;background-color: transparent; color: light-dark(rgb(0, 0, 0), rgb(255, 255, 255));&quot;&gt;+ 檢查購物車是否為空() : boolean&lt;/span&gt;&lt;/p&gt;" style="verticalAlign=top;align=left;overflow=fill;html=1;whiteSpace=wrap;" parent="1" vertex="1">
          <mxGeometry x="20" y="60" width="200" height="140" as="geometry" />
        </mxCell>
        <mxCell id="px66vnaE_Js9J5YGRRfs-2" value="&lt;p style=&quot;margin:0px;margin-top:4px;text-align:center;&quot;&gt;&lt;b&gt;驗證使用者控制&lt;/b&gt;&lt;/p&gt;&lt;hr size=&quot;1&quot; style=&quot;border-style:solid;&quot;&gt;&lt;p style=&quot;margin:0px;margin-left:4px;&quot;&gt;- 使用者名稱 : String&lt;/p&gt;&lt;p style=&quot;margin:0px;margin-left:4px;&quot;&gt;- 使用者密碼 : String&lt;/p&gt;&lt;hr size=&quot;1&quot; style=&quot;border-style:solid;&quot;&gt;&lt;p style=&quot;margin:0px;margin-left:4px;&quot;&gt;+&amp;nbsp;&lt;span style=&quot;text-align: center;&quot;&gt;驗證使用者&lt;/span&gt;() : void&lt;/p&gt;" style="verticalAlign=top;align=left;overflow=fill;html=1;whiteSpace=wrap;" parent="1" vertex="1">
          <mxGeometry x="250" y="60" width="140" height="90" as="geometry" />
        </mxCell>
        <mxCell id="px66vnaE_Js9J5YGRRfs-3" value="&lt;p style=&quot;margin:0px;margin-top:4px;text-align:center;&quot;&gt;&lt;b&gt;購物車&lt;/b&gt;&lt;/p&gt;&lt;hr size=&quot;1&quot; style=&quot;border-style:solid;&quot;&gt;&lt;p style=&quot;margin:0px;margin-left:4px;&quot;&gt;- 購物車項目 :&lt;span style=&quot;background-color: transparent; color: light-dark(rgb(0, 0, 0), rgb(255, 255, 255));&quot;&gt;&amp;nbsp;&lt;/span&gt;&lt;span style=&quot;background-color: transparent; color: light-dark(rgb(0, 0, 0), rgb(255, 255, 255));&quot;&gt;java.util.Vector&lt;/span&gt;&lt;/p&gt;&lt;hr size=&quot;1&quot; style=&quot;border-style:solid;&quot;&gt;&lt;p style=&quot;margin:0px;margin-left:4px;&quot;&gt;+ 加入購物車(編號 : String, 數量 : int) : void&lt;/p&gt;&lt;p style=&quot;margin:0px;margin-left:4px;&quot;&gt;+ 取得購物車項目() : void&lt;/p&gt;&lt;p style=&quot;margin:0px;margin-left:4px;&quot;&gt;+ 計算購物車總價() : double&lt;/p&gt;" style="verticalAlign=top;align=left;overflow=fill;html=1;whiteSpace=wrap;" parent="1" vertex="1">
          <mxGeometry x="-120" y="340" width="260" height="110" as="geometry" />
        </mxCell>
        <mxCell id="px66vnaE_Js9J5YGRRfs-4" value="&lt;p style=&quot;margin:0px;margin-top:4px;text-align:center;&quot;&gt;&lt;b&gt;購物車明細&lt;/b&gt;&lt;/p&gt;&lt;hr size=&quot;1&quot; style=&quot;border-style:solid;&quot;&gt;&lt;p style=&quot;margin:0px;margin-left:4px;&quot;&gt;- 商品編號 :&lt;span style=&quot;background-color: transparent; color: light-dark(rgb(0, 0, 0), rgb(255, 255, 255));&quot;&gt;&amp;nbsp;&lt;/span&gt;&lt;span style=&quot;background-color: transparent; color: light-dark(rgb(0, 0, 0), rgb(255, 255, 255));&quot;&gt;String&lt;br&gt;- 數量 : int&lt;/span&gt;&lt;/p&gt;&lt;hr size=&quot;1&quot; style=&quot;border-style:solid;&quot;&gt;&lt;p style=&quot;margin:0px;margin-left:4px;&quot;&gt;+ 計算小計() : double&lt;/p&gt;&lt;p style=&quot;margin:0px;margin-left:4px;&quot;&gt;+ 指定商品編號(編號 : String) : void&lt;/p&gt;&lt;p style=&quot;margin:0px;margin-left:4px;&quot;&gt;+ 取得商品編號() : String&lt;br&gt;+ 指定數量(數量 : int) : void&lt;/p&gt;&lt;p style=&quot;margin:0px;margin-left:4px;&quot;&gt;+ 取得數量() : int&lt;/p&gt;" style="verticalAlign=top;align=left;overflow=fill;html=1;whiteSpace=wrap;" parent="1" vertex="1">
          <mxGeometry x="-120" y="540" width="260" height="150" as="geometry" />
        </mxCell>
        <mxCell id="px66vnaE_Js9J5YGRRfs-5" value="&lt;p style=&quot;margin:0px;margin-top:4px;text-align:center;&quot;&gt;&lt;b&gt;商品&lt;/b&gt;&lt;/p&gt;&lt;hr size=&quot;1&quot; style=&quot;border-style:solid;&quot;&gt;&lt;p style=&quot;margin:0px;margin-left:4px;&quot;&gt;- 商品編號 :&lt;span style=&quot;background-color: transparent; color: light-dark(rgb(0, 0, 0), rgb(255, 255, 255));&quot;&gt;&amp;nbsp;&lt;/span&gt;&lt;span style=&quot;background-color: transparent; color: light-dark(rgb(0, 0, 0), rgb(255, 255, 255));&quot;&gt;String&lt;/span&gt;&lt;/p&gt;&lt;p style=&quot;margin:0px;margin-left:4px;&quot;&gt;&lt;span style=&quot;background-color: transparent; color: light-dark(rgb(0, 0, 0), rgb(255, 255, 255));&quot;&gt;- 商品名稱 :&amp;nbsp;&lt;/span&gt;String&lt;/p&gt;&lt;p style=&quot;margin:0px;margin-left:4px;&quot;&gt;&lt;span style=&quot;background-color: transparent; color: light-dark(rgb(0, 0, 0), rgb(255, 255, 255));&quot;&gt;-&amp;nbsp;&lt;/span&gt;&lt;span style=&quot;color: light-dark(rgb(0, 0, 0), rgb(255, 255, 255)); background-color: transparent;&quot;&gt;商品描述 :&amp;nbsp;&lt;/span&gt;String&lt;/p&gt;&lt;p style=&quot;margin:0px;margin-left:4px;&quot;&gt;&lt;span style=&quot;background-color: transparent; color: light-dark(rgb(0, 0, 0), rgb(255, 255, 255));&quot;&gt;- 單價 : double&lt;/span&gt;&lt;/p&gt;&lt;p style=&quot;margin:0px;margin-left:4px;&quot;&gt;&lt;span style=&quot;background-color: transparent; color: light-dark(rgb(0, 0, 0), rgb(255, 255, 255));&quot;&gt;- 供應商 : int&lt;/span&gt;&lt;/p&gt;&lt;p style=&quot;margin:0px;margin-left:4px;&quot;&gt;&lt;span style=&quot;background-color: transparent; color: light-dark(rgb(0, 0, 0), rgb(255, 255, 255));&quot;&gt;- 目錄編號 : String&lt;br&gt;&lt;/span&gt;&lt;/p&gt;&lt;hr size=&quot;1&quot; style=&quot;border-style:solid;&quot;&gt;&lt;p style=&quot;margin:0px;margin-left:4px;&quot;&gt;+ 取得商品目錄(目錄編號 : String) : void&lt;/p&gt;&lt;p style=&quot;margin:0px;margin-left:4px;&quot;&gt;+ 取得商品資料(商品編號 : String) : void&lt;/p&gt;" style="verticalAlign=top;align=left;overflow=fill;html=1;whiteSpace=wrap;" parent="1" vertex="1">
          <mxGeometry x="-500" y="535" width="260" height="160" as="geometry" />
        </mxCell>
        <mxCell id="px66vnaE_Js9J5YGRRfs-6" value="&lt;p style=&quot;margin:0px;margin-top:4px;text-align:center;&quot;&gt;&lt;b&gt;訂購明細&lt;/b&gt;&lt;/p&gt;&lt;hr size=&quot;1&quot; style=&quot;border-style:solid;&quot;&gt;&lt;p style=&quot;margin:0px;margin-left:4px;&quot;&gt;- 商品編號 :&lt;span style=&quot;color: light-dark(rgb(0, 0, 0), rgb(255, 255, 255)); background-color: transparent;&quot;&gt;&amp;nbsp;&lt;/span&gt;&lt;span style=&quot;color: light-dark(rgb(0, 0, 0), rgb(255, 255, 255)); background-color: transparent;&quot;&gt;String&lt;br&gt;- 數量 : int&lt;/span&gt;&lt;/p&gt;&lt;hr size=&quot;1&quot; style=&quot;border-style:solid;&quot;&gt;&lt;p style=&quot;margin: 0px 0px 0px 4px;&quot;&gt;+ 計算小計() : double&lt;/p&gt;&lt;p style=&quot;margin: 0px 0px 0px 4px;&quot;&gt;+ 指定商品編號(編號 : String) : void&lt;/p&gt;&lt;p style=&quot;margin: 0px 0px 0px 4px;&quot;&gt;+ 取得商品編號() : String&lt;br&gt;+ 指定數量(數量 : int) : void&lt;/p&gt;&lt;p style=&quot;margin: 0px 0px 0px 4px;&quot;&gt;+ 取得數量() : int&lt;/p&gt;" style="verticalAlign=top;align=left;overflow=fill;html=1;whiteSpace=wrap;" parent="1" vertex="1">
          <mxGeometry x="-500" y="775" width="260" height="150" as="geometry" />
        </mxCell>
        <mxCell id="px66vnaE_Js9J5YGRRfs-7" value="&lt;p style=&quot;margin:0px;margin-top:4px;text-align:center;&quot;&gt;&lt;b&gt;訂單&lt;/b&gt;&lt;/p&gt;&lt;hr size=&quot;1&quot; style=&quot;border-style:solid;&quot;&gt;&lt;p style=&quot;margin:0px;margin-left:4px;&quot;&gt;- 訂單編號 :&lt;span style=&quot;color: light-dark(rgb(0, 0, 0), rgb(255, 255, 255)); background-color: transparent;&quot;&gt;&amp;nbsp;&lt;/span&gt;&lt;span style=&quot;color: light-dark(rgb(0, 0, 0), rgb(255, 255, 255)); background-color: transparent;&quot;&gt;String&lt;br&gt;&lt;/span&gt;- 訂單項目 :&lt;span style=&quot;color: light-dark(rgb(0, 0, 0), rgb(255, 255, 255)); background-color: transparent;&quot;&gt;&amp;nbsp;&lt;/span&gt;java.util.Vector&lt;span style=&quot;color: light-dark(rgb(0, 0, 0), rgb(255, 255, 255)); background-color: transparent;&quot;&gt;&lt;br&gt;- 付款方式 : char&lt;/span&gt;&lt;/p&gt;&lt;p style=&quot;margin:0px;margin-left:4px;&quot;&gt;&lt;span style=&quot;color: light-dark(rgb(0, 0, 0), rgb(255, 255, 255)); background-color: transparent;&quot;&gt;- 訂單日期 :&amp;nbsp;&lt;/span&gt;&lt;span style=&quot;background-color: transparent; color: light-dark(rgb(0, 0, 0), rgb(255, 255, 255));&quot;&gt;java.util.Date&lt;/span&gt;&lt;/p&gt;&lt;p style=&quot;margin:0px;margin-left:4px;&quot;&gt;&lt;span style=&quot;background-color: transparent; color: light-dark(rgb(0, 0, 0), rgb(255, 255, 255));&quot;&gt;- 訂單狀態 : char&lt;/span&gt;&lt;/p&gt;&lt;hr size=&quot;1&quot; style=&quot;border-style:solid;&quot;&gt;&lt;p style=&quot;margin: 0px 0px 0px 4px;&quot;&gt;+ 儲存訂單() : void&lt;/p&gt;&lt;p style=&quot;margin: 0px 0px 0px 4px;&quot;&gt;+ 計算訂單總價() :&amp;nbsp;&lt;span style=&quot;background-color: transparent; color: light-dark(rgb(0, 0, 0), rgb(255, 255, 255));&quot;&gt;double&lt;/span&gt;&lt;/p&gt;&lt;p style=&quot;margin: 0px 0px 0px 4px;&quot;&gt;+ 取得訂單項目() : void&lt;br&gt;&lt;/p&gt;" style="verticalAlign=top;align=left;overflow=fill;html=1;whiteSpace=wrap;" parent="1" vertex="1">
          <mxGeometry x="-120" y="765" width="260" height="170" as="geometry" />
        </mxCell>
        <mxCell id="px66vnaE_Js9J5YGRRfs-8" value="&lt;p style=&quot;margin:0px;margin-top:4px;text-align:center;&quot;&gt;&lt;b&gt;會員&lt;/b&gt;&lt;/p&gt;&lt;hr size=&quot;1&quot; style=&quot;border-style:solid;&quot;&gt;&lt;p style=&quot;margin:0px;margin-left:4px;&quot;&gt;- 使用者名稱 :&lt;span style=&quot;background-color: transparent; color: light-dark(rgb(0, 0, 0), rgb(255, 255, 255));&quot;&gt;&amp;nbsp;&lt;/span&gt;&lt;span style=&quot;background-color: transparent; color: light-dark(rgb(0, 0, 0), rgb(255, 255, 255));&quot;&gt;String&lt;/span&gt;&lt;/p&gt;&lt;p style=&quot;margin:0px;margin-left:4px;&quot;&gt;&lt;span style=&quot;background-color: transparent; color: light-dark(rgb(0, 0, 0), rgb(255, 255, 255));&quot;&gt;- 使用者密碼 :&amp;nbsp;&lt;/span&gt;String&lt;/p&gt;&lt;hr size=&quot;1&quot; style=&quot;border-style:solid;&quot;&gt;&lt;p style=&quot;margin:0px;margin-left:4px;&quot;&gt;+ 取得名稱(使用者名稱&amp;nbsp;: String) : String&lt;/p&gt;&lt;p style=&quot;margin:0px;margin-left:4px;&quot;&gt;+ 取得密碼(使用者密碼 : String) :&amp;nbsp;&lt;span style=&quot;background-color: transparent; color: light-dark(rgb(0, 0, 0), rgb(255, 255, 255));&quot;&gt;String&lt;/span&gt;&lt;/p&gt;" style="verticalAlign=top;align=left;overflow=fill;html=1;whiteSpace=wrap;" parent="1" vertex="1">
          <mxGeometry x="284" y="550" width="260" height="110" as="geometry" />
        </mxCell>
        <mxCell id="px66vnaE_Js9J5YGRRfs-9" value="&lt;p style=&quot;margin:0px;margin-top:4px;text-align:center;&quot;&gt;&lt;b&gt;客戶&lt;/b&gt;&lt;/p&gt;&lt;hr size=&quot;1&quot; style=&quot;border-style:solid;&quot;&gt;&lt;p style=&quot;margin:0px;margin-left:4px;&quot;&gt;- 客戶編號 :&lt;span style=&quot;background-color: transparent; color: light-dark(rgb(0, 0, 0), rgb(255, 255, 255));&quot;&gt;&amp;nbsp;&lt;/span&gt;&lt;span style=&quot;background-color: transparent; color: light-dark(rgb(0, 0, 0), rgb(255, 255, 255));&quot;&gt;String&lt;/span&gt;&lt;/p&gt;&lt;p style=&quot;margin:0px;margin-left:4px;&quot;&gt;&lt;span style=&quot;background-color: transparent; color: light-dark(rgb(0, 0, 0), rgb(255, 255, 255));&quot;&gt;- 姓名 :&amp;nbsp;&lt;/span&gt;String&lt;/p&gt;&lt;p style=&quot;margin:0px;margin-left:4px;&quot;&gt;&lt;span style=&quot;background-color: transparent; color: light-dark(rgb(0, 0, 0), rgb(255, 255, 255));&quot;&gt;-&amp;nbsp;&lt;/span&gt;&lt;span style=&quot;color: light-dark(rgb(0, 0, 0), rgb(255, 255, 255)); background-color: transparent;&quot;&gt;電話 :&amp;nbsp;&lt;/span&gt;String&lt;/p&gt;&lt;p style=&quot;margin:0px;margin-left:4px;&quot;&gt;&lt;span style=&quot;background-color: transparent; color: light-dark(rgb(0, 0, 0), rgb(255, 255, 255));&quot;&gt;- 地址 : double&lt;/span&gt;&lt;/p&gt;&lt;hr size=&quot;1&quot; style=&quot;border-style:solid;&quot;&gt;&lt;p style=&quot;margin:0px;margin-left:4px;&quot;&gt;+ 取得客戶編號() :&amp;nbsp;&lt;span style=&quot;background-color: transparent; color: light-dark(rgb(0, 0, 0), rgb(255, 255, 255));&quot;&gt;String&lt;/span&gt;&lt;/p&gt;&lt;p style=&quot;margin:0px;margin-left:4px;&quot;&gt;+ 取得客戶姓名() :&amp;nbsp;&lt;span style=&quot;color: light-dark(rgb(0, 0, 0), rgb(255, 255, 255)); background-color: transparent;&quot;&gt;String&lt;/span&gt;&lt;/p&gt;&lt;p style=&quot;margin:0px;margin-left:4px;&quot;&gt;+ 取得客戶電話() :&amp;nbsp;&lt;span style=&quot;color: light-dark(rgb(0, 0, 0), rgb(255, 255, 255)); background-color: transparent;&quot;&gt;String&lt;/span&gt;&lt;span style=&quot;color: light-dark(rgb(0, 0, 0), rgb(255, 255, 255)); background-color: transparent;&quot;&gt;&lt;/span&gt;&lt;/p&gt;&lt;p style=&quot;margin:0px;margin-left:4px;&quot;&gt;+ 取得客戶地址() :&amp;nbsp;&lt;span style=&quot;color: light-dark(rgb(0, 0, 0), rgb(255, 255, 255)); background-color: transparent;&quot;&gt;String&lt;/span&gt;&lt;span style=&quot;color: light-dark(rgb(0, 0, 0), rgb(255, 255, 255)); background-color: transparent;&quot;&gt;&lt;/span&gt;&lt;/p&gt;" style="verticalAlign=top;align=left;overflow=fill;html=1;whiteSpace=wrap;" parent="1" vertex="1">
          <mxGeometry x="284" y="770" width="260" height="160" as="geometry" />
        </mxCell>
        <mxCell id="px66vnaE_Js9J5YGRRfs-13" value="" style="endArrow=none;html=1;rounded=0;exitX=0.5;exitY=0;exitDx=0;exitDy=0;entryX=0.5;entryY=1;entryDx=0;entryDy=0;" parent="1" source="px66vnaE_Js9J5YGRRfs-4" target="px66vnaE_Js9J5YGRRfs-3" edge="1">
          <mxGeometry width="50" height="50" relative="1" as="geometry">
            <mxPoint y="760" as="sourcePoint" />
            <mxPoint x="1" y="448" as="targetPoint" />
          </mxGeometry>
        </mxCell>
        <mxCell id="px66vnaE_Js9J5YGRRfs-19" value="0..1" style="edgeLabel;html=1;align=center;verticalAlign=middle;resizable=0;points=[];" parent="px66vnaE_Js9J5YGRRfs-13" vertex="1" connectable="0">
          <mxGeometry x="0.563" y="3" relative="1" as="geometry">
            <mxPoint x="23" as="offset" />
          </mxGeometry>
        </mxCell>
        <mxCell id="px66vnaE_Js9J5YGRRfs-20" value="0..*" style="edgeLabel;html=1;align=center;verticalAlign=middle;resizable=0;points=[];" parent="px66vnaE_Js9J5YGRRfs-13" vertex="1" connectable="0">
          <mxGeometry x="-0.6853" relative="1" as="geometry">
            <mxPoint x="-20" as="offset" />
          </mxGeometry>
        </mxCell>
        <mxCell id="px66vnaE_Js9J5YGRRfs-14" value="" style="endArrow=none;html=1;rounded=0;exitX=1;exitY=0.5;exitDx=0;exitDy=0;entryX=0;entryY=0.5;entryDx=0;entryDy=0;" parent="1" source="px66vnaE_Js9J5YGRRfs-5" target="px66vnaE_Js9J5YGRRfs-4" edge="1">
          <mxGeometry width="50" height="50" relative="1" as="geometry">
            <mxPoint y="760" as="sourcePoint" />
            <mxPoint x="50" y="710" as="targetPoint" />
          </mxGeometry>
        </mxCell>
        <mxCell id="px66vnaE_Js9J5YGRRfs-21" value="1" style="edgeLabel;html=1;align=center;verticalAlign=middle;resizable=0;points=[];" parent="px66vnaE_Js9J5YGRRfs-14" vertex="1" connectable="0">
          <mxGeometry x="-0.6" y="1" relative="1" as="geometry">
            <mxPoint x="-4" y="-14" as="offset" />
          </mxGeometry>
        </mxCell>
        <mxCell id="px66vnaE_Js9J5YGRRfs-22" value="1" style="edgeLabel;html=1;align=center;verticalAlign=middle;resizable=0;points=[];" parent="px66vnaE_Js9J5YGRRfs-14" vertex="1" connectable="0">
          <mxGeometry x="0.7167" y="-3" relative="1" as="geometry">
            <mxPoint y="12" as="offset" />
          </mxGeometry>
        </mxCell>
        <mxCell id="px66vnaE_Js9J5YGRRfs-15" value="" style="endArrow=none;html=1;rounded=0;entryX=0.5;entryY=1;entryDx=0;entryDy=0;" parent="1" source="px66vnaE_Js9J5YGRRfs-6" target="px66vnaE_Js9J5YGRRfs-5" edge="1">
          <mxGeometry width="50" height="50" relative="1" as="geometry">
            <mxPoint x="-370" y="770" as="sourcePoint" />
            <mxPoint x="50" y="710" as="targetPoint" />
          </mxGeometry>
        </mxCell>
        <mxCell id="px66vnaE_Js9J5YGRRfs-23" value="1" style="edgeLabel;html=1;align=center;verticalAlign=middle;resizable=0;points=[];" parent="px66vnaE_Js9J5YGRRfs-15" vertex="1" connectable="0">
          <mxGeometry x="0.625" y="1" relative="1" as="geometry">
            <mxPoint x="11" as="offset" />
          </mxGeometry>
        </mxCell>
        <mxCell id="px66vnaE_Js9J5YGRRfs-24" value="1" style="edgeLabel;html=1;align=center;verticalAlign=middle;resizable=0;points=[];" parent="px66vnaE_Js9J5YGRRfs-15" vertex="1" connectable="0">
          <mxGeometry x="-0.475" y="2" relative="1" as="geometry">
            <mxPoint x="-8" as="offset" />
          </mxGeometry>
        </mxCell>
        <mxCell id="px66vnaE_Js9J5YGRRfs-16" value="" style="endArrow=none;html=1;rounded=0;exitX=1;exitY=0.5;exitDx=0;exitDy=0;entryX=0;entryY=0.5;entryDx=0;entryDy=0;" parent="1" source="px66vnaE_Js9J5YGRRfs-6" target="px66vnaE_Js9J5YGRRfs-7" edge="1">
          <mxGeometry width="50" height="50" relative="1" as="geometry">
            <mxPoint y="760" as="sourcePoint" />
            <mxPoint x="50" y="710" as="targetPoint" />
          </mxGeometry>
        </mxCell>
        <mxCell id="px66vnaE_Js9J5YGRRfs-25" value="0..*" style="edgeLabel;html=1;align=center;verticalAlign=middle;resizable=0;points=[];" parent="px66vnaE_Js9J5YGRRfs-16" vertex="1" connectable="0">
          <mxGeometry x="-0.6333" y="-2" relative="1" as="geometry">
            <mxPoint x="-2" y="-22" as="offset" />
          </mxGeometry>
        </mxCell>
        <mxCell id="px66vnaE_Js9J5YGRRfs-26" value="0..1" style="edgeLabel;html=1;align=center;verticalAlign=middle;resizable=0;points=[];" parent="px66vnaE_Js9J5YGRRfs-16" vertex="1" connectable="0">
          <mxGeometry x="0.7" y="1" relative="1" as="geometry">
            <mxPoint y="21" as="offset" />
          </mxGeometry>
        </mxCell>
        <mxCell id="px66vnaE_Js9J5YGRRfs-17" value="" style="endArrow=none;html=1;rounded=0;entryX=0;entryY=0.5;entryDx=0;entryDy=0;exitX=1;exitY=0.5;exitDx=0;exitDy=0;" parent="1" source="px66vnaE_Js9J5YGRRfs-7" target="px66vnaE_Js9J5YGRRfs-9" edge="1">
          <mxGeometry width="50" height="50" relative="1" as="geometry">
            <mxPoint y="760" as="sourcePoint" />
            <mxPoint x="50" y="710" as="targetPoint" />
          </mxGeometry>
        </mxCell>
        <mxCell id="px66vnaE_Js9J5YGRRfs-27" value="0..*" style="edgeLabel;html=1;align=center;verticalAlign=middle;resizable=0;points=[];" parent="px66vnaE_Js9J5YGRRfs-17" vertex="1" connectable="0">
          <mxGeometry x="-0.75" relative="1" as="geometry">
            <mxPoint y="-20" as="offset" />
          </mxGeometry>
        </mxCell>
        <mxCell id="px66vnaE_Js9J5YGRRfs-28" value="1" style="edgeLabel;html=1;align=center;verticalAlign=middle;resizable=0;points=[];" parent="px66vnaE_Js9J5YGRRfs-17" vertex="1" connectable="0">
          <mxGeometry x="0.7917" y="2" relative="1" as="geometry">
            <mxPoint y="22" as="offset" />
          </mxGeometry>
        </mxCell>
        <mxCell id="px66vnaE_Js9J5YGRRfs-18" value="" style="endArrow=none;html=1;rounded=0;entryX=0.5;entryY=1;entryDx=0;entryDy=0;" parent="1" source="px66vnaE_Js9J5YGRRfs-9" target="px66vnaE_Js9J5YGRRfs-8" edge="1">
          <mxGeometry width="50" height="50" relative="1" as="geometry">
            <mxPoint y="760" as="sourcePoint" />
            <mxPoint x="50" y="710" as="targetPoint" />
          </mxGeometry>
        </mxCell>
        <mxCell id="px66vnaE_Js9J5YGRRfs-29" value="1" style="edgeLabel;html=1;align=center;verticalAlign=middle;resizable=0;points=[];" parent="px66vnaE_Js9J5YGRRfs-18" vertex="1" connectable="0">
          <mxGeometry x="0.6727" y="1" relative="1" as="geometry">
            <mxPoint x="-23" as="offset" />
          </mxGeometry>
        </mxCell>
        <mxCell id="px66vnaE_Js9J5YGRRfs-30" value="1" style="edgeLabel;html=1;align=center;verticalAlign=middle;resizable=0;points=[];" parent="px66vnaE_Js9J5YGRRfs-18" vertex="1" connectable="0">
          <mxGeometry x="-0.4727" y="-3" relative="1" as="geometry">
            <mxPoint x="23" y="9" as="offset" />
          </mxGeometry>
        </mxCell>
        <mxCell id="2XsuTEto_RW9u4DohiFR-2" value="&lt;p style=&quot;margin:0px;margin-top:4px;text-align:center;&quot;&gt;&lt;b&gt;商品資料控制&lt;/b&gt;&lt;/p&gt;&lt;hr size=&quot;1&quot; style=&quot;border-style:solid;&quot;&gt;&lt;p style=&quot;margin:0px;margin-left:4px;&quot;&gt;- 目錄內容 : Map&amp;lt;String, List&amp;lt;Product&amp;gt;&amp;gt;&lt;/p&gt;&lt;p style=&quot;margin:0px;margin-left:4px;&quot;&gt;- 商品內容 :&amp;nbsp;&lt;span style=&quot;background-color: transparent; color: light-dark(rgb(0, 0, 0), rgb(255, 255, 255));&quot;&gt;Map&amp;lt;String, Product&amp;gt;&lt;/span&gt;&lt;/p&gt;&lt;hr size=&quot;1&quot; style=&quot;border-style:solid;&quot;&gt;&lt;p style=&quot;margin:0px;margin-left:4px;&quot;&gt;&lt;font style=&quot;color: light-dark(rgb(0, 0, 0), rgb(255, 255, 255));&quot;&gt;+ 取得所有目錄名稱() :&amp;nbsp;&lt;/font&gt;&lt;span style=&quot;background-color: transparent; color: light-dark(rgb(0, 0, 0), rgb(255, 255, 255));&quot;&gt;List&amp;lt;String&amp;gt;&lt;/span&gt;&lt;/p&gt;&lt;p style=&quot;margin:0px;margin-left:4px;&quot;&gt;&lt;font style=&quot;color: light-dark(rgb(0, 0, 0), rgb(255, 255, 255));&quot;&gt;+ 取得指定目錄下全部商品(目錄&lt;span style=&quot;background-color: transparent;&quot;&gt;編號 : String&lt;/span&gt;&lt;span style=&quot;background-color: transparent;&quot;&gt;) :&amp;nbsp;&lt;/span&gt;&lt;/font&gt;&lt;span style=&quot;background-color: transparent; color: light-dark(rgb(0, 0, 0), rgb(255, 255, 255));&quot;&gt;List&amp;lt;Product&amp;gt;&lt;/span&gt;&lt;/p&gt;&lt;p style=&quot;margin:0px;margin-left:4px;&quot;&gt;&lt;font style=&quot;&quot;&gt;&lt;font&gt;&lt;span style=&quot;background-color: transparent;&quot;&gt;&lt;font style=&quot;color: light-dark(rgb(0, 0, 0), rgb(255, 255, 255));&quot;&gt;+ 依商品編號取商品(商品編號 : String)&lt;/font&gt;&lt;/span&gt;&lt;span style=&quot;background-color: transparent;&quot;&gt;&lt;font style=&quot;color: light-dark(rgb(0, 0, 0), rgb(255, 255, 255));&quot;&gt;&amp;nbsp;:&lt;/font&gt;&lt;font color=&quot;#ff0000&quot;&gt;&amp;nbsp;&lt;/font&gt;&lt;/span&gt;&lt;/font&gt;&lt;span style=&quot;color: light-dark(rgb(0, 0, 0), rgb(255, 255, 255)); background-color: transparent;&quot;&gt;Product&lt;/span&gt;&lt;/font&gt;&lt;span style=&quot;color: rgb(255, 0, 0); background-color: transparent;&quot;&gt;&amp;nbsp;&lt;/span&gt;&lt;span style=&quot;color: rgb(255, 0, 0); background-color: transparent;&quot;&gt;&amp;nbsp;&lt;/span&gt;&lt;/p&gt;" style="verticalAlign=top;align=left;overflow=fill;html=1;whiteSpace=wrap;" parent="1" vertex="1">
          <mxGeometry x="-570" y="1550" width="340" height="120" as="geometry" />
        </mxCell>
        <mxCell id="2XsuTEto_RW9u4DohiFR-3" value="&lt;p style=&quot;margin:0px;margin-top:4px;text-align:center;&quot;&gt;&lt;b&gt;購物車控制&lt;/b&gt;&lt;/p&gt;&lt;hr size=&quot;1&quot; style=&quot;border-style:solid;&quot;&gt;&lt;p style=&quot;margin:0px;margin-left:4px;&quot;&gt;&lt;font style=&quot;color: rgb(255, 255, 255);&quot;&gt;- 購物車 : ShoppingCart&lt;/font&gt;&lt;br&gt;&lt;/p&gt;&lt;hr size=&quot;1&quot; style=&quot;border-style:solid;&quot;&gt;&lt;p style=&quot;margin:0px;margin-left:4px;&quot;&gt;+ 取得&lt;span style=&quot;background-color: transparent; color: light-dark(rgb(0, 0, 0), rgb(255, 255, 255));&quot;&gt;購物車內容&lt;/span&gt;&lt;span style=&quot;background-color: transparent; color: light-dark(rgb(0, 0, 0), rgb(255, 255, 255));&quot;&gt;() :&lt;/span&gt;&lt;span style=&quot;background-color: transparent; color: light-dark(rgb(0, 0, 0), rgb(255, 255, 255));&quot;&gt;Collection&amp;lt;ShoppingCartItem&amp;gt;&lt;/span&gt;&lt;/p&gt;&lt;p style=&quot;margin:0px;margin-left:4px;&quot;&gt;+ 訂購商品(商品:Product, 數量:int) : void&lt;/p&gt;&lt;p style=&quot;margin:0px;margin-left:4px;&quot;&gt;+ 修改訂購數量(商品&lt;span style=&quot;background-color: transparent; color: light-dark(rgb(0, 0, 0), rgb(255, 255, 255));&quot;&gt;編號 : String&lt;/span&gt;&lt;span style=&quot;background-color: transparent; color: light-dark(rgb(0, 0, 0), rgb(255, 255, 255));&quot;&gt;, 數量:int&lt;/span&gt;&lt;span style=&quot;background-color: transparent; color: light-dark(rgb(0, 0, 0), rgb(255, 255, 255));&quot;&gt;) :&amp;nbsp;&lt;/span&gt;&lt;span style=&quot;background-color: transparent; color: light-dark(rgb(0, 0, 0), rgb(255, 255, 255));&quot;&gt;boolean&lt;/span&gt;&lt;/p&gt;&lt;p style=&quot;margin:0px;margin-left:4px;&quot;&gt;&lt;span style=&quot;background-color: transparent; color: light-dark(rgb(0, 0, 0), rgb(255, 255, 255));&quot;&gt;+ 刪除訂購項目(商品編號 : string) :&amp;nbsp;&lt;/span&gt;&lt;span style=&quot;background-color: transparent; color: light-dark(rgb(0, 0, 0), rgb(255, 255, 255));&quot;&gt;boolean&lt;/span&gt;&lt;/p&gt;&lt;p style=&quot;margin:0px;margin-left:4px;&quot;&gt;&lt;span style=&quot;background-color: transparent; color: light-dark(rgb(0, 0, 0), rgb(255, 255, 255));&quot;&gt;+ 檢查購物車是否為空() : boolean&lt;/span&gt;&lt;/p&gt;" style="verticalAlign=top;align=left;overflow=fill;html=1;whiteSpace=wrap;" parent="1" vertex="1">
          <mxGeometry x="-140" y="1280" width="300" height="140" as="geometry" />
        </mxCell>
        <mxCell id="p1leRzHCNMkaryXsuXEp-1" value="&lt;p style=&quot;margin:0px;margin-top:4px;text-align:center;&quot;&gt;&lt;b&gt;購物車&lt;/b&gt;&lt;/p&gt;&lt;hr size=&quot;1&quot; style=&quot;border-style:solid;&quot;&gt;&lt;p style=&quot;margin:0px;margin-left:4px;&quot;&gt;- 購物車訂購明細 :&lt;span style=&quot;background-color: transparent; color: light-dark(rgb(0, 0, 0), rgb(255, 255, 255));&quot;&gt;&amp;nbsp;&lt;/span&gt;&lt;span style=&quot;background-color: transparent; color: light-dark(rgb(0, 0, 0), rgb(255, 255, 255));&quot;&gt;Map&amp;lt;String, ShoppingCartItem&amp;gt;&lt;/span&gt;&lt;/p&gt;&lt;hr size=&quot;1&quot; style=&quot;border-style:solid;&quot;&gt;&lt;p style=&quot;margin: 0px 0px 0px 4px;&quot;&gt;+ 取得&lt;span style=&quot;background-color: transparent; color: light-dark(rgb(0, 0, 0), rgb(255, 255, 255));&quot;&gt;購物車內容&lt;/span&gt;&lt;span style=&quot;background-color: transparent; color: light-dark(rgb(0, 0, 0), rgb(255, 255, 255));&quot;&gt;() :&lt;/span&gt;&lt;span style=&quot;background-color: transparent; color: light-dark(rgb(0, 0, 0), rgb(255, 255, 255));&quot;&gt;Collection&amp;lt;ShoppingCartItem&amp;gt;&lt;/span&gt;&lt;/p&gt;&lt;p style=&quot;margin: 0px 0px 0px 4px;&quot;&gt;+ 訂購商品(商品:Product, 數量:int) : void&lt;/p&gt;&lt;p style=&quot;margin: 0px 0px 0px 4px;&quot;&gt;+ 修改訂購數量(商品&lt;span style=&quot;background-color: transparent; color: light-dark(rgb(0, 0, 0), rgb(255, 255, 255));&quot;&gt;編號 : String&lt;/span&gt;&lt;span style=&quot;background-color: transparent; color: light-dark(rgb(0, 0, 0), rgb(255, 255, 255));&quot;&gt;, 數量:int&lt;/span&gt;&lt;span style=&quot;background-color: transparent; color: light-dark(rgb(0, 0, 0), rgb(255, 255, 255));&quot;&gt;) :&amp;nbsp;&lt;/span&gt;&lt;span style=&quot;background-color: transparent; color: light-dark(rgb(0, 0, 0), rgb(255, 255, 255));&quot;&gt;boolean&lt;/span&gt;&lt;/p&gt;&lt;p style=&quot;margin: 0px 0px 0px 4px;&quot;&gt;&lt;span style=&quot;background-color: transparent; color: light-dark(rgb(0, 0, 0), rgb(255, 255, 255));&quot;&gt;+ 刪除訂購項目(商品編號 : string) :&amp;nbsp;&lt;/span&gt;&lt;span style=&quot;background-color: transparent; color: light-dark(rgb(0, 0, 0), rgb(255, 255, 255));&quot;&gt;boolean&lt;/span&gt;&lt;/p&gt;&lt;p style=&quot;margin: 0px 0px 0px 4px;&quot;&gt;&lt;span style=&quot;background-color: transparent; color: light-dark(rgb(0, 0, 0), rgb(255, 255, 255));&quot;&gt;+&amp;nbsp;&lt;/span&gt;&lt;span style=&quot;background-color: transparent; color: light-dark(rgb(0, 0, 0), rgb(255, 255, 255));&quot;&gt;計算購物車總金額() :&amp;nbsp;&lt;/span&gt;&lt;span style=&quot;background-color: transparent; color: light-dark(rgb(0, 0, 0), rgb(255, 255, 255));&quot;&gt;BigDecimal&lt;/span&gt;&lt;/p&gt;&lt;p style=&quot;margin: 0px 0px 0px 4px;&quot;&gt;&lt;span style=&quot;background-color: transparent; color: light-dark(rgb(0, 0, 0), rgb(255, 255, 255));&quot;&gt;+ 檢查購物車是否為空() : boolean&lt;/span&gt;&lt;/p&gt;" style="verticalAlign=top;align=left;overflow=fill;html=1;whiteSpace=wrap;" parent="1" vertex="1">
          <mxGeometry x="-140" y="1540" width="300" height="150" as="geometry" />
        </mxCell>
        <mxCell id="p1leRzHCNMkaryXsuXEp-2" value="&lt;p style=&quot;margin:0px;margin-top:4px;text-align:center;&quot;&gt;&lt;b&gt;購物車&lt;/b&gt;&lt;span style=&quot;background-color: transparent; color: light-dark(rgb(0, 0, 0), rgb(255, 255, 255)); text-align: left;&quot;&gt;&lt;b&gt;訂購明細&lt;/b&gt;&lt;/span&gt;&lt;/p&gt;&lt;hr size=&quot;1&quot; style=&quot;border-style:solid;&quot;&gt;&lt;p style=&quot;margin:0px;margin-left:4px;&quot;&gt;- 商品 : Product&lt;span style=&quot;background-color: transparent; color: light-dark(rgb(0, 0, 0), rgb(255, 255, 255));&quot;&gt;&lt;br&gt;- 數量 : int&lt;/span&gt;&lt;/p&gt;&lt;hr size=&quot;1&quot; style=&quot;border-style:solid;&quot;&gt;&lt;p style=&quot;margin:0px;margin-left:4px;&quot;&gt;+ 計算小計() :&amp;nbsp;&lt;span style=&quot;background-color: transparent; color: light-dark(rgb(0, 0, 0), rgb(255, 255, 255));&quot;&gt;BigDecimal&lt;/span&gt;&lt;/p&gt;&lt;p style=&quot;margin:0px;margin-left:4px;&quot;&gt;+ 累計數量(新訂購數量 : int) : void&lt;/p&gt;&lt;p style=&quot;margin:0px;margin-left:4px;&quot;&gt;+ 取得商品() : Product&lt;br&gt;&lt;/p&gt;&lt;p style=&quot;margin:0px;margin-left:4px;&quot;&gt;+ 取得數量() : int&lt;/p&gt;&lt;p style=&quot;margin:0px;margin-left:4px;&quot;&gt;+ 修改數量(數量 : int) : void&lt;/p&gt;" style="verticalAlign=top;align=left;overflow=fill;html=1;whiteSpace=wrap;" parent="1" vertex="1">
          <mxGeometry x="-120" y="1800" width="260" height="150" as="geometry" />
        </mxCell>
        <mxCell id="p1leRzHCNMkaryXsuXEp-3" value="&lt;p style=&quot;margin:0px;margin-top:4px;text-align:center;&quot;&gt;&lt;b&gt;商品&lt;/b&gt;&lt;/p&gt;&lt;hr size=&quot;1&quot; style=&quot;border-style:solid;&quot;&gt;&lt;p style=&quot;margin:0px;margin-left:4px;&quot;&gt;- 商品編號 :&lt;span style=&quot;background-color: transparent; color: light-dark(rgb(0, 0, 0), rgb(255, 255, 255));&quot;&gt;&amp;nbsp;&lt;/span&gt;&lt;span style=&quot;background-color: transparent; color: light-dark(rgb(0, 0, 0), rgb(255, 255, 255));&quot;&gt;String&lt;/span&gt;&lt;/p&gt;&lt;p style=&quot;margin:0px;margin-left:4px;&quot;&gt;&lt;span style=&quot;background-color: transparent; color: light-dark(rgb(0, 0, 0), rgb(255, 255, 255));&quot;&gt;- 商品名稱 :&amp;nbsp;&lt;/span&gt;String&lt;/p&gt;&lt;p style=&quot;margin:0px;margin-left:4px;&quot;&gt;&lt;span style=&quot;background-color: transparent; color: light-dark(rgb(0, 0, 0), rgb(255, 255, 255));&quot;&gt;-&amp;nbsp;&lt;/span&gt;&lt;span style=&quot;color: light-dark(rgb(0, 0, 0), rgb(255, 255, 255)); background-color: transparent;&quot;&gt;商品描述 :&amp;nbsp;&lt;/span&gt;String&lt;/p&gt;&lt;p style=&quot;margin:0px;margin-left:4px;&quot;&gt;&lt;span style=&quot;background-color: transparent; color: light-dark(rgb(0, 0, 0), rgb(255, 255, 255));&quot;&gt;- 單價 :&amp;nbsp;&lt;/span&gt;&lt;span style=&quot;background-color: transparent;&quot;&gt;&lt;font style=&quot;color: light-dark(rgb(0, 0, 0), rgb(255, 255, 255));&quot;&gt;BigDecimal&lt;/font&gt;&lt;/span&gt;&lt;/p&gt;&lt;p style=&quot;margin:0px;margin-left:4px;&quot;&gt;&lt;span style=&quot;background-color: transparent; color: light-dark(rgb(0, 0, 0), rgb(255, 255, 255));&quot;&gt;- 目錄編號 : String&lt;br&gt;&lt;/span&gt;&lt;/p&gt;&lt;hr size=&quot;1&quot; style=&quot;border-style:solid;&quot;&gt;&lt;p style=&quot;margin:0px;margin-left:4px;&quot;&gt;&lt;span style=&quot;background-color: light-dark(#ffffff, var(--ge-dark-color, #121212));&quot;&gt;&lt;font style=&quot;color: light-dark(rgb(0, 0, 0), rgb(255, 255, 255));&quot;&gt;+ 取得商品編號() :&amp;nbsp;String&lt;/font&gt;&lt;/span&gt;&lt;/p&gt;&lt;p style=&quot;margin:0px;margin-left:4px;&quot;&gt;&lt;span style=&quot;background-color: light-dark(#ffffff, var(--ge-dark-color, #121212));&quot;&gt;&lt;font style=&quot;color: light-dark(rgb(0, 0, 0), rgb(255, 255, 255));&quot;&gt;+ &lt;font&gt;取得商品名稱() &lt;/font&gt;:&amp;nbsp;String&lt;/font&gt;&lt;/span&gt;&lt;/p&gt;&lt;p style=&quot;margin:0px;margin-left:4px;&quot;&gt;&lt;span style=&quot;background-color: light-dark(#ffffff, var(--ge-dark-color, #121212));&quot;&gt;&lt;font style=&quot;color: light-dark(rgb(0, 0, 0), rgb(255, 255, 255));&quot;&gt;+&amp;nbsp;取得商品描述() :&amp;nbsp;String&lt;/font&gt;&lt;/span&gt;&lt;/p&gt;&lt;p style=&quot;margin:0px;margin-left:4px;&quot;&gt;&lt;font style=&quot;color: light-dark(rgb(0, 0, 0), rgb(255, 255, 255));&quot;&gt;&lt;span style=&quot;background-color: light-dark(#ffffff, var(--ge-dark-color, #121212));&quot;&gt;&lt;font&gt;+&amp;nbsp;取得單價() :&amp;nbsp;&lt;/font&gt;&lt;/span&gt;&lt;span style=&quot;background-color: transparent;&quot;&gt;BigDecimal&lt;/span&gt;&lt;/font&gt;&lt;/p&gt;&lt;p style=&quot;margin:0px;margin-left:4px;&quot;&gt;&lt;span style=&quot;background-color: light-dark(#ffffff, var(--ge-dark-color, #121212));&quot;&gt;&lt;font style=&quot;color: light-dark(rgb(0, 0, 0), rgb(255, 255, 255));&quot;&gt;+ 取得目錄編號() : void&lt;/font&gt;&lt;/span&gt;&lt;/p&gt;" style="verticalAlign=top;align=left;overflow=fill;html=1;whiteSpace=wrap;" parent="1" vertex="1">
          <mxGeometry x="-540" y="1777.5" width="260" height="195" as="geometry" />
        </mxCell>
        <mxCell id="pl6eAUjfmmTmRV6Uxho1-7" value="" style="endArrow=diamondThin;endFill=1;endSize=24;html=1;rounded=0;exitX=0.5;exitY=0;exitDx=0;exitDy=0;entryX=0.5;entryY=1;entryDx=0;entryDy=0;" edge="1" parent="1" source="p1leRzHCNMkaryXsuXEp-1" target="2XsuTEto_RW9u4DohiFR-3">
          <mxGeometry width="160" relative="1" as="geometry">
            <mxPoint x="-190" y="1740" as="sourcePoint" />
            <mxPoint x="-30" y="1740" as="targetPoint" />
          </mxGeometry>
        </mxCell>
        <mxCell id="pl6eAUjfmmTmRV6Uxho1-8" value="1" style="edgeLabel;html=1;align=center;verticalAlign=middle;resizable=0;points=[];fontSize=16;" vertex="1" connectable="0" parent="pl6eAUjfmmTmRV6Uxho1-7">
          <mxGeometry x="0.3548" y="3" relative="1" as="geometry">
            <mxPoint x="-7" y="1" as="offset" />
          </mxGeometry>
        </mxCell>
        <mxCell id="pl6eAUjfmmTmRV6Uxho1-9" value="1" style="edgeLabel;html=1;align=center;verticalAlign=middle;resizable=0;points=[];fontSize=16;" vertex="1" connectable="0" parent="pl6eAUjfmmTmRV6Uxho1-7">
          <mxGeometry x="-0.431" y="-3" relative="1" as="geometry">
            <mxPoint x="7" y="14" as="offset" />
          </mxGeometry>
        </mxCell>
        <mxCell id="pl6eAUjfmmTmRV6Uxho1-10" value="" style="endArrow=diamondThin;endFill=0;endSize=24;html=1;rounded=0;exitX=0.5;exitY=0;exitDx=0;exitDy=0;" edge="1" parent="1" source="p1leRzHCNMkaryXsuXEp-2">
          <mxGeometry width="160" relative="1" as="geometry">
            <mxPoint x="-50" y="1990" as="sourcePoint" />
            <mxPoint x="10" y="1693" as="targetPoint" />
          </mxGeometry>
        </mxCell>
        <mxCell id="pl6eAUjfmmTmRV6Uxho1-11" value="1" style="edgeLabel;html=1;align=center;verticalAlign=middle;resizable=0;points=[];fontSize=16;" vertex="1" connectable="0" parent="pl6eAUjfmmTmRV6Uxho1-10">
          <mxGeometry x="0.2899" y="-1" relative="1" as="geometry">
            <mxPoint x="-11" y="-4" as="offset" />
          </mxGeometry>
        </mxCell>
        <mxCell id="pl6eAUjfmmTmRV6Uxho1-12" value="&lt;font style=&quot;font-size: 16px;&quot;&gt;0..*&lt;/font&gt;" style="edgeLabel;html=1;align=center;verticalAlign=middle;resizable=0;points=[];" vertex="1" connectable="0" parent="pl6eAUjfmmTmRV6Uxho1-10">
          <mxGeometry x="-0.6105" y="1" relative="1" as="geometry">
            <mxPoint x="21" y="1" as="offset" />
          </mxGeometry>
        </mxCell>
        <mxCell id="pl6eAUjfmmTmRV6Uxho1-16" value="" style="endArrow=diamondThin;endFill=0;endSize=24;html=1;rounded=0;exitX=0.5;exitY=0;exitDx=0;exitDy=0;" edge="1" parent="1">
          <mxGeometry width="160" relative="1" as="geometry">
            <mxPoint x="-400" y="1777.5" as="sourcePoint" />
            <mxPoint x="-400" y="1670.5" as="targetPoint" />
          </mxGeometry>
        </mxCell>
        <mxCell id="pl6eAUjfmmTmRV6Uxho1-17" value="1" style="edgeLabel;html=1;align=center;verticalAlign=middle;resizable=0;points=[];fontSize=16;" vertex="1" connectable="0" parent="pl6eAUjfmmTmRV6Uxho1-16">
          <mxGeometry x="0.2899" y="-1" relative="1" as="geometry">
            <mxPoint x="-11" y="-4" as="offset" />
          </mxGeometry>
        </mxCell>
        <mxCell id="pl6eAUjfmmTmRV6Uxho1-18" value="&lt;font style=&quot;font-size: 16px;&quot;&gt;0..*&lt;/font&gt;" style="edgeLabel;html=1;align=center;verticalAlign=middle;resizable=0;points=[];" vertex="1" connectable="0" parent="pl6eAUjfmmTmRV6Uxho1-16">
          <mxGeometry x="-0.6105" y="1" relative="1" as="geometry">
            <mxPoint x="21" y="1" as="offset" />
          </mxGeometry>
        </mxCell>
        <mxCell id="pl6eAUjfmmTmRV6Uxho1-19" value="name" style="endArrow=block;endFill=1;html=1;edgeStyle=orthogonalEdgeStyle;align=left;verticalAlign=top;rounded=0;exitX=0;exitY=0.5;exitDx=0;exitDy=0;entryX=1;entryY=0.5;entryDx=0;entryDy=0;" edge="1" parent="1" source="p1leRzHCNMkaryXsuXEp-2" target="p1leRzHCNMkaryXsuXEp-3">
          <mxGeometry x="-1" relative="1" as="geometry">
            <mxPoint x="-270" y="2030" as="sourcePoint" />
            <mxPoint x="-240" y="1870" as="targetPoint" />
          </mxGeometry>
        </mxCell>
        <mxCell id="pl6eAUjfmmTmRV6Uxho1-20" value="1" style="edgeLabel;resizable=0;html=1;align=left;verticalAlign=bottom;" connectable="0" vertex="1" parent="pl6eAUjfmmTmRV6Uxho1-19">
          <mxGeometry x="-1" relative="1" as="geometry" />
        </mxCell>
        <mxCell id="pl6eAUjfmmTmRV6Uxho1-21" value="1" style="edgeLabel;html=1;align=center;verticalAlign=middle;resizable=0;points=[];fontSize=16;" vertex="1" connectable="0" parent="pl6eAUjfmmTmRV6Uxho1-19">
          <mxGeometry x="0.6696" y="2" relative="1" as="geometry">
            <mxPoint x="1" y="-17" as="offset" />
          </mxGeometry>
        </mxCell>
        <mxCell id="pl6eAUjfmmTmRV6Uxho1-22" value="1" style="edgeLabel;html=1;align=center;verticalAlign=middle;resizable=0;points=[];fontSize=16;" vertex="1" connectable="0" parent="pl6eAUjfmmTmRV6Uxho1-19">
          <mxGeometry x="-0.6686" y="2" relative="1" as="geometry">
            <mxPoint x="1" y="23" as="offset" />
          </mxGeometry>
        </mxCell>
      </root>
    </mxGraphModel>
  </diagram>
  <diagram id="mKCWG50vzNVdBKmsDcv9" name="循序圖">
    <mxGraphModel dx="786" dy="516" grid="1" gridSize="10" guides="1" tooltips="1" connect="1" arrows="1" fold="1" page="1" pageScale="1" pageWidth="827" pageHeight="1169" math="0" shadow="0">
      <root>
        <mxCell id="0" />
        <mxCell id="1" parent="0" />
        <mxCell id="w3vZ8yK1GaBub7MYn9hq-1" value="" style="html=1;points=[[0,0,0,0,5],[0,1,0,0,-5],[1,0,0,0,5],[1,1,0,0,-5]];perimeter=orthogonalPerimeter;outlineConnect=0;targetShapes=umlLifeline;portConstraint=eastwest;newEdgeStyle={&quot;curved&quot;:0,&quot;rounded&quot;:0};" parent="1" vertex="1">
          <mxGeometry x="80" y="140" width="10" height="370" as="geometry" />
        </mxCell>
        <mxCell id="w3vZ8yK1GaBub7MYn9hq-2" value="" style="endArrow=none;html=1;rounded=0;" parent="1" source="w3vZ8yK1GaBub7MYn9hq-1" edge="1">
          <mxGeometry width="50" height="50" relative="1" as="geometry">
            <mxPoint x="80" y="130" as="sourcePoint" />
            <mxPoint x="85" y="120" as="targetPoint" />
          </mxGeometry>
        </mxCell>
        <mxCell id="w3vZ8yK1GaBub7MYn9hq-3" value="客戶" style="shape=umlActor;verticalLabelPosition=bottom;verticalAlign=top;html=1;outlineConnect=0;" parent="1" vertex="1">
          <mxGeometry x="70" y="20" width="30" height="60" as="geometry" />
        </mxCell>
        <mxCell id="w3vZ8yK1GaBub7MYn9hq-5" value="" style="endArrow=none;html=1;rounded=0;" parent="1" edge="1">
          <mxGeometry width="50" height="50" relative="1" as="geometry">
            <mxPoint x="84.86" y="510" as="sourcePoint" />
            <mxPoint x="84.86" y="530" as="targetPoint" />
          </mxGeometry>
        </mxCell>
        <mxCell id="w3vZ8yK1GaBub7MYn9hq-6" value="«boundary»&lt;br&gt;&lt;b&gt;: 商品目錄介面&lt;/b&gt;" style="html=1;whiteSpace=wrap;" parent="1" vertex="1">
          <mxGeometry x="150" y="40" width="110" height="50" as="geometry" />
        </mxCell>
        <mxCell id="w3vZ8yK1GaBub7MYn9hq-7" value="«boundary»&lt;br&gt;&lt;b&gt;: 購物車介面&lt;/b&gt;" style="html=1;whiteSpace=wrap;" parent="1" vertex="1">
          <mxGeometry x="290" y="40" width="110" height="50" as="geometry" />
        </mxCell>
        <mxCell id="w3vZ8yK1GaBub7MYn9hq-8" value="«boundary»&lt;br&gt;&lt;b&gt;: 詳細資料介面&lt;/b&gt;" style="html=1;whiteSpace=wrap;" parent="1" vertex="1">
          <mxGeometry x="440" y="40" width="110" height="50" as="geometry" />
        </mxCell>
        <mxCell id="w3vZ8yK1GaBub7MYn9hq-9" value="«control»&lt;br&gt;&lt;b&gt;: 購物車控制&lt;/b&gt;" style="html=1;whiteSpace=wrap;" parent="1" vertex="1">
          <mxGeometry x="640" y="40" width="110" height="50" as="geometry" />
        </mxCell>
        <mxCell id="w3vZ8yK1GaBub7MYn9hq-10" value="«control»&lt;br&gt;&lt;b&gt;: 商品資料控制&lt;/b&gt;" style="html=1;whiteSpace=wrap;" parent="1" vertex="1">
          <mxGeometry x="790" y="40" width="110" height="50" as="geometry" />
        </mxCell>
        <mxCell id="w3vZ8yK1GaBub7MYn9hq-11" value="«entity»&lt;br&gt;&lt;b&gt;: 購物車&lt;/b&gt;" style="html=1;whiteSpace=wrap;" parent="1" vertex="1">
          <mxGeometry x="960" y="40" width="110" height="50" as="geometry" />
        </mxCell>
        <mxCell id="w3vZ8yK1GaBub7MYn9hq-13" value="«entity»&lt;br&gt;&lt;b&gt;:&amp;nbsp;&lt;/b&gt;商品" style="html=1;whiteSpace=wrap;" parent="1" vertex="1">
          <mxGeometry x="1100" y="40" width="110" height="50" as="geometry" />
        </mxCell>
        <mxCell id="w3vZ8yK1GaBub7MYn9hq-14" value="" style="endArrow=none;html=1;rounded=0;entryX=0.5;entryY=1;entryDx=0;entryDy=0;dashed=1;dashPattern=8 8;" parent="1" source="w3vZ8yK1GaBub7MYn9hq-16" target="w3vZ8yK1GaBub7MYn9hq-6" edge="1">
          <mxGeometry width="50" height="50" relative="1" as="geometry">
            <mxPoint x="195" y="520" as="sourcePoint" />
            <mxPoint x="220" y="160" as="targetPoint" />
          </mxGeometry>
        </mxCell>
        <mxCell id="w3vZ8yK1GaBub7MYn9hq-15" value="" style="endArrow=none;html=1;rounded=0;entryX=0.5;entryY=1;entryDx=0;entryDy=0;dashed=1;dashPattern=8 8;" parent="1" source="w3vZ8yK1GaBub7MYn9hq-87" edge="1">
          <mxGeometry width="50" height="50" relative="1" as="geometry">
            <mxPoint x="350" y="520" as="sourcePoint" />
            <mxPoint x="350" y="90" as="targetPoint" />
          </mxGeometry>
        </mxCell>
        <mxCell id="w3vZ8yK1GaBub7MYn9hq-17" value="" style="endArrow=none;html=1;rounded=0;dashed=1;dashPattern=8 8;" parent="1" source="rR87RErqenFPHJM5NCkh-2" target="w3vZ8yK1GaBub7MYn9hq-16" edge="1">
          <mxGeometry width="50" height="50" relative="1" as="geometry">
            <mxPoint x="204.8" y="520" as="sourcePoint" />
            <mxPoint x="204.8" y="220" as="targetPoint" />
          </mxGeometry>
        </mxCell>
        <mxCell id="w3vZ8yK1GaBub7MYn9hq-16" value="" style="html=1;points=[[0,0,0,0,5],[0,1,0,0,-5],[1,0,0,0,5],[1,1,0,0,-5]];perimeter=orthogonalPerimeter;outlineConnect=0;targetShapes=umlLifeline;portConstraint=eastwest;newEdgeStyle={&quot;curved&quot;:0,&quot;rounded&quot;:0};" parent="1" vertex="1">
          <mxGeometry x="200" y="140" width="10" height="50" as="geometry" />
        </mxCell>
        <mxCell id="w3vZ8yK1GaBub7MYn9hq-20" value="" style="endArrow=block;endFill=1;html=1;edgeStyle=orthogonalEdgeStyle;align=left;verticalAlign=top;rounded=0;" parent="1" edge="1">
          <mxGeometry x="-1" relative="1" as="geometry">
            <mxPoint x="90" y="150" as="sourcePoint" />
            <mxPoint x="200" y="150" as="targetPoint" />
          </mxGeometry>
        </mxCell>
        <mxCell id="w3vZ8yK1GaBub7MYn9hq-22" value="選擇目錄(編號)" style="text;html=1;align=center;verticalAlign=middle;resizable=0;points=[];autosize=1;strokeColor=none;fillColor=none;" parent="1" vertex="1">
          <mxGeometry x="85" y="130" width="100" height="30" as="geometry" />
        </mxCell>
        <mxCell id="w3vZ8yK1GaBub7MYn9hq-25" value="" style="endArrow=block;endFill=1;html=1;edgeStyle=orthogonalEdgeStyle;align=left;verticalAlign=top;rounded=0;" parent="1" edge="1">
          <mxGeometry x="-1" relative="1" as="geometry">
            <mxPoint x="90" y="239.31" as="sourcePoint" />
            <mxPoint x="200" y="239.31" as="targetPoint" />
          </mxGeometry>
        </mxCell>
        <mxCell id="w3vZ8yK1GaBub7MYn9hq-26" value="選取商品(編號)" style="text;html=1;align=center;verticalAlign=middle;resizable=0;points=[];autosize=1;strokeColor=none;fillColor=none;" parent="1" vertex="1">
          <mxGeometry x="85" y="210" width="100" height="30" as="geometry" />
        </mxCell>
        <mxCell id="w3vZ8yK1GaBub7MYn9hq-27" value="" style="endArrow=none;html=1;rounded=0;entryX=0.5;entryY=1;entryDx=0;entryDy=0;dashed=1;dashPattern=8 8;" parent="1" source="w3vZ8yK1GaBub7MYn9hq-24" edge="1">
          <mxGeometry width="50" height="50" relative="1" as="geometry">
            <mxPoint x="494.66" y="520" as="sourcePoint" />
            <mxPoint x="494.66" y="90" as="targetPoint" />
          </mxGeometry>
        </mxCell>
        <mxCell id="w3vZ8yK1GaBub7MYn9hq-28" value="" style="endArrow=none;html=1;rounded=0;entryX=0.5;entryY=1;entryDx=0;entryDy=0;dashed=1;dashPattern=8 8;" parent="1" source="w3vZ8yK1GaBub7MYn9hq-56" edge="1">
          <mxGeometry width="50" height="50" relative="1" as="geometry">
            <mxPoint x="694.6600000000001" y="520" as="sourcePoint" />
            <mxPoint x="694.6600000000001" y="90" as="targetPoint" />
          </mxGeometry>
        </mxCell>
        <mxCell id="w3vZ8yK1GaBub7MYn9hq-29" value="" style="endArrow=none;html=1;rounded=0;entryX=0.5;entryY=1;entryDx=0;entryDy=0;dashed=1;dashPattern=8 8;" parent="1" source="w3vZ8yK1GaBub7MYn9hq-32" edge="1">
          <mxGeometry width="50" height="50" relative="1" as="geometry">
            <mxPoint x="844.6600000000001" y="520" as="sourcePoint" />
            <mxPoint x="844.6600000000001" y="90" as="targetPoint" />
          </mxGeometry>
        </mxCell>
        <mxCell id="w3vZ8yK1GaBub7MYn9hq-30" value="" style="endArrow=none;html=1;rounded=0;entryX=0.5;entryY=1;entryDx=0;entryDy=0;dashed=1;dashPattern=8 8;" parent="1" source="w3vZ8yK1GaBub7MYn9hq-43" edge="1">
          <mxGeometry width="50" height="50" relative="1" as="geometry">
            <mxPoint x="1014.6600000000001" y="520" as="sourcePoint" />
            <mxPoint x="1014.6600000000001" y="90" as="targetPoint" />
          </mxGeometry>
        </mxCell>
        <mxCell id="w3vZ8yK1GaBub7MYn9hq-31" value="" style="endArrow=none;html=1;rounded=0;entryX=0.5;entryY=1;entryDx=0;entryDy=0;dashed=1;dashPattern=8 8;" parent="1" source="w3vZ8yK1GaBub7MYn9hq-67" edge="1">
          <mxGeometry width="50" height="50" relative="1" as="geometry">
            <mxPoint x="1154.66" y="520" as="sourcePoint" />
            <mxPoint x="1154.66" y="90" as="targetPoint" />
          </mxGeometry>
        </mxCell>
        <mxCell id="w3vZ8yK1GaBub7MYn9hq-33" value="" style="endArrow=none;html=1;rounded=0;entryX=0.5;entryY=1;entryDx=0;entryDy=0;dashed=1;dashPattern=8 8;" parent="1" source="w3vZ8yK1GaBub7MYn9hq-39" target="w3vZ8yK1GaBub7MYn9hq-32" edge="1">
          <mxGeometry width="50" height="50" relative="1" as="geometry">
            <mxPoint x="844.6600000000001" y="520" as="sourcePoint" />
            <mxPoint x="844.6600000000001" y="90" as="targetPoint" />
          </mxGeometry>
        </mxCell>
        <mxCell id="w3vZ8yK1GaBub7MYn9hq-32" value="" style="html=1;points=[[0,0,0,0,5],[0,1,0,0,-5],[1,0,0,0,5],[1,1,0,0,-5]];perimeter=orthogonalPerimeter;outlineConnect=0;targetShapes=umlLifeline;portConstraint=eastwest;newEdgeStyle={&quot;curved&quot;:0,&quot;rounded&quot;:0};" parent="1" vertex="1">
          <mxGeometry x="840" y="140" width="10" height="50" as="geometry" />
        </mxCell>
        <mxCell id="w3vZ8yK1GaBub7MYn9hq-35" value="" style="endArrow=block;endFill=1;html=1;edgeStyle=orthogonalEdgeStyle;align=left;verticalAlign=top;rounded=0;exitX=1;exitY=0;exitDx=0;exitDy=5;exitPerimeter=0;entryX=0;entryY=0;entryDx=0;entryDy=5;entryPerimeter=0;" parent="1" source="w3vZ8yK1GaBub7MYn9hq-16" target="w3vZ8yK1GaBub7MYn9hq-32" edge="1">
          <mxGeometry x="-1" relative="1" as="geometry">
            <mxPoint x="420" y="180.47" as="sourcePoint" />
            <mxPoint x="530" y="180.47" as="targetPoint" />
          </mxGeometry>
        </mxCell>
        <mxCell id="w3vZ8yK1GaBub7MYn9hq-36" value="取得商品目錄(目錄編號&lt;span style=&quot;background-color: transparent; color: light-dark(rgb(0, 0, 0), rgb(255, 255, 255));&quot;&gt;)&lt;/span&gt;" style="text;html=1;align=center;verticalAlign=middle;resizable=0;points=[];autosize=1;strokeColor=none;fillColor=none;" parent="1" vertex="1">
          <mxGeometry x="200" y="118" width="150" height="30" as="geometry" />
        </mxCell>
        <mxCell id="w3vZ8yK1GaBub7MYn9hq-37" value="" style="endArrow=block;endFill=1;html=1;edgeStyle=orthogonalEdgeStyle;align=left;verticalAlign=top;rounded=0;exitX=0;exitY=1;exitDx=0;exitDy=-5;exitPerimeter=0;" parent="1" edge="1">
          <mxGeometry x="-1" relative="1" as="geometry">
            <mxPoint x="840" y="190.0000000000001" as="sourcePoint" />
            <mxPoint x="210" y="190" as="targetPoint" />
          </mxGeometry>
        </mxCell>
        <mxCell id="w3vZ8yK1GaBub7MYn9hq-38" value="顯示商品目錄(&lt;span style=&quot;background-color: transparent; color: light-dark(rgb(0, 0, 0), rgb(255, 255, 255));&quot;&gt;)&lt;/span&gt;" style="text;html=1;align=center;verticalAlign=middle;resizable=0;points=[];autosize=1;strokeColor=none;fillColor=none;" parent="1" vertex="1">
          <mxGeometry x="220" y="160" width="100" height="30" as="geometry" />
        </mxCell>
        <mxCell id="w3vZ8yK1GaBub7MYn9hq-40" value="" style="endArrow=none;html=1;rounded=0;entryX=0.5;entryY=1;entryDx=0;entryDy=0;dashed=1;dashPattern=8 8;" parent="1" target="w3vZ8yK1GaBub7MYn9hq-39" edge="1">
          <mxGeometry width="50" height="50" relative="1" as="geometry">
            <mxPoint x="844.6600000000001" y="520" as="sourcePoint" />
            <mxPoint x="845" y="190" as="targetPoint" />
          </mxGeometry>
        </mxCell>
        <mxCell id="w3vZ8yK1GaBub7MYn9hq-39" value="" style="html=1;points=[[0,0,0,0,5],[0,1,0,0,-5],[1,0,0,0,5],[1,1,0,0,-5]];perimeter=orthogonalPerimeter;outlineConnect=0;targetShapes=umlLifeline;portConstraint=eastwest;newEdgeStyle={&quot;curved&quot;:0,&quot;rounded&quot;:0};" parent="1" vertex="1">
          <mxGeometry x="840" y="240" width="10" height="80" as="geometry" />
        </mxCell>
        <mxCell id="w3vZ8yK1GaBub7MYn9hq-41" value="" style="endArrow=block;endFill=1;html=1;edgeStyle=orthogonalEdgeStyle;align=left;verticalAlign=top;rounded=0;entryX=0;entryY=0;entryDx=0;entryDy=5;entryPerimeter=0;" parent="1" edge="1">
          <mxGeometry x="-1" relative="1" as="geometry">
            <mxPoint x="210" y="239.8" as="sourcePoint" />
            <mxPoint x="840" y="239.8" as="targetPoint" />
          </mxGeometry>
        </mxCell>
        <mxCell id="w3vZ8yK1GaBub7MYn9hq-42" value="取得商品資料(商品編號&lt;span style=&quot;background-color: transparent; color: light-dark(rgb(0, 0, 0), rgb(255, 255, 255));&quot;&gt;)&lt;/span&gt;" style="text;html=1;align=center;verticalAlign=middle;resizable=0;points=[];autosize=1;strokeColor=none;fillColor=none;" parent="1" vertex="1">
          <mxGeometry x="200" y="210" width="150" height="30" as="geometry" />
        </mxCell>
        <mxCell id="w3vZ8yK1GaBub7MYn9hq-45" value="取得商品資料(商品編號&lt;span style=&quot;background-color: transparent; color: light-dark(rgb(0, 0, 0), rgb(255, 255, 255));&quot;&gt;)&lt;/span&gt;" style="text;html=1;align=center;verticalAlign=middle;resizable=0;points=[];autosize=1;strokeColor=none;fillColor=none;" parent="1" vertex="1">
          <mxGeometry x="850" y="220" width="150" height="30" as="geometry" />
        </mxCell>
        <mxCell id="w3vZ8yK1GaBub7MYn9hq-46" value="" style="endArrow=block;endFill=1;html=1;edgeStyle=orthogonalEdgeStyle;align=left;verticalAlign=top;rounded=0;dashed=1;dashPattern=8 8;" parent="1" edge="1">
          <mxGeometry x="-1" relative="1" as="geometry">
            <mxPoint x="1150" y="290" as="sourcePoint" />
            <mxPoint x="850" y="290" as="targetPoint" />
          </mxGeometry>
        </mxCell>
        <mxCell id="w3vZ8yK1GaBub7MYn9hq-47" value="" style="endArrow=block;endFill=1;html=1;edgeStyle=orthogonalEdgeStyle;align=left;verticalAlign=top;rounded=0;exitX=0;exitY=1;exitDx=0;exitDy=-5;exitPerimeter=0;" parent="1" edge="1">
          <mxGeometry x="-1" relative="1" as="geometry">
            <mxPoint x="840" y="310.0000000000001" as="sourcePoint" />
            <mxPoint x="500" y="310" as="targetPoint" />
          </mxGeometry>
        </mxCell>
        <mxCell id="w3vZ8yK1GaBub7MYn9hq-48" value="" style="endArrow=none;html=1;rounded=0;entryX=0.5;entryY=1;entryDx=0;entryDy=0;dashed=1;dashPattern=8 8;" parent="1" target="w3vZ8yK1GaBub7MYn9hq-24" edge="1">
          <mxGeometry width="50" height="50" relative="1" as="geometry">
            <mxPoint x="494.66" y="520" as="sourcePoint" />
            <mxPoint x="494.66" y="90" as="targetPoint" />
            <Array as="points">
              <mxPoint x="490" y="450" />
            </Array>
          </mxGeometry>
        </mxCell>
        <mxCell id="w3vZ8yK1GaBub7MYn9hq-24" value="" style="html=1;points=[[0,0,0,0,5],[0,1,0,0,-5],[1,0,0,0,5],[1,1,0,0,-5]];perimeter=orthogonalPerimeter;outlineConnect=0;targetShapes=umlLifeline;portConstraint=eastwest;newEdgeStyle={&quot;curved&quot;:0,&quot;rounded&quot;:0};" parent="1" vertex="1">
          <mxGeometry x="490" y="300" width="10" height="70" as="geometry" />
        </mxCell>
        <mxCell id="w3vZ8yK1GaBub7MYn9hq-49" value="顯示詳細資料(&lt;span style=&quot;background-color: transparent; color: light-dark(rgb(0, 0, 0), rgb(255, 255, 255));&quot;&gt;)&lt;/span&gt;" style="text;html=1;align=center;verticalAlign=middle;resizable=0;points=[];autosize=1;strokeColor=none;fillColor=none;" parent="1" vertex="1">
          <mxGeometry x="510" y="280" width="100" height="30" as="geometry" />
        </mxCell>
        <mxCell id="w3vZ8yK1GaBub7MYn9hq-50" value="" style="endArrow=block;endFill=1;html=1;edgeStyle=orthogonalEdgeStyle;align=left;verticalAlign=top;rounded=0;exitX=0.3;exitY=0.835;exitDx=0;exitDy=0;exitPerimeter=0;entryX=0;entryY=0;entryDx=0;entryDy=5;entryPerimeter=0;" parent="1" target="w3vZ8yK1GaBub7MYn9hq-24" edge="1">
          <mxGeometry x="-1" relative="1" as="geometry">
            <mxPoint x="90" y="304.97000000000014" as="sourcePoint" />
            <mxPoint x="470" y="305" as="targetPoint" />
          </mxGeometry>
        </mxCell>
        <mxCell id="w3vZ8yK1GaBub7MYn9hq-51" value="輸入數量(數量)" style="text;html=1;align=center;verticalAlign=middle;resizable=0;points=[];autosize=1;strokeColor=none;fillColor=none;" parent="1" vertex="1">
          <mxGeometry x="85" y="280" width="100" height="30" as="geometry" />
        </mxCell>
        <mxCell id="w3vZ8yK1GaBub7MYn9hq-54" value="" style="endArrow=block;endFill=1;html=1;edgeStyle=orthogonalEdgeStyle;align=left;verticalAlign=top;rounded=0;exitX=0.3;exitY=0.835;exitDx=0;exitDy=0;exitPerimeter=0;entryX=0;entryY=0;entryDx=0;entryDy=5;entryPerimeter=0;" parent="1" edge="1">
          <mxGeometry x="-1" relative="1" as="geometry">
            <mxPoint x="90" y="350.0000000000001" as="sourcePoint" />
            <mxPoint x="490" y="350.03" as="targetPoint" />
          </mxGeometry>
        </mxCell>
        <mxCell id="w3vZ8yK1GaBub7MYn9hq-55" value="訂購(編號)" style="text;html=1;align=center;verticalAlign=middle;resizable=0;points=[];autosize=1;strokeColor=none;fillColor=none;" parent="1" vertex="1">
          <mxGeometry x="95" y="320" width="80" height="30" as="geometry" />
        </mxCell>
        <mxCell id="w3vZ8yK1GaBub7MYn9hq-57" value="" style="endArrow=none;html=1;rounded=0;entryX=0.5;entryY=1;entryDx=0;entryDy=0;dashed=1;dashPattern=8 8;" parent="1" target="w3vZ8yK1GaBub7MYn9hq-56" edge="1">
          <mxGeometry width="50" height="50" relative="1" as="geometry">
            <mxPoint x="694.6600000000001" y="520" as="sourcePoint" />
            <mxPoint x="694.6600000000001" y="90" as="targetPoint" />
          </mxGeometry>
        </mxCell>
        <mxCell id="w3vZ8yK1GaBub7MYn9hq-56" value="" style="html=1;points=[[0,0,0,0,5],[0,1,0,0,-5],[1,0,0,0,5],[1,1,0,0,-5]];perimeter=orthogonalPerimeter;outlineConnect=0;targetShapes=umlLifeline;portConstraint=eastwest;newEdgeStyle={&quot;curved&quot;:0,&quot;rounded&quot;:0};" parent="1" vertex="1">
          <mxGeometry x="690" y="360" width="10" height="130" as="geometry" />
        </mxCell>
        <mxCell id="w3vZ8yK1GaBub7MYn9hq-58" value="" style="endArrow=block;endFill=1;html=1;edgeStyle=orthogonalEdgeStyle;align=left;verticalAlign=top;rounded=0;exitX=0.3;exitY=0.835;exitDx=0;exitDy=0;exitPerimeter=0;" parent="1" edge="1">
          <mxGeometry x="-1" relative="1" as="geometry">
            <mxPoint x="700" y="360.0000000000001" as="sourcePoint" />
            <mxPoint x="1010" y="360" as="targetPoint" />
          </mxGeometry>
        </mxCell>
        <mxCell id="w3vZ8yK1GaBub7MYn9hq-60" value="訂購(編號、數量)" style="text;html=1;align=center;verticalAlign=middle;resizable=0;points=[];autosize=1;strokeColor=none;fillColor=none;" parent="1" vertex="1">
          <mxGeometry x="490" y="340" width="120" height="30" as="geometry" />
        </mxCell>
        <mxCell id="w3vZ8yK1GaBub7MYn9hq-61" value="" style="endArrow=none;html=1;rounded=0;entryX=0.5;entryY=1;entryDx=0;entryDy=0;dashed=1;dashPattern=8 8;" parent="1" target="w3vZ8yK1GaBub7MYn9hq-43" edge="1">
          <mxGeometry width="50" height="50" relative="1" as="geometry">
            <mxPoint x="1014.6600000000001" y="520" as="sourcePoint" />
            <mxPoint x="1014.6600000000001" y="90" as="targetPoint" />
          </mxGeometry>
        </mxCell>
        <mxCell id="w3vZ8yK1GaBub7MYn9hq-43" value="" style="html=1;points=[[0,0,0,0,5],[0,1,0,0,-5],[1,0,0,0,5],[1,1,0,0,-5]];perimeter=orthogonalPerimeter;outlineConnect=0;targetShapes=umlLifeline;portConstraint=eastwest;newEdgeStyle={&quot;curved&quot;:0,&quot;rounded&quot;:0};" parent="1" vertex="1">
          <mxGeometry x="1010" y="360" width="10" height="50" as="geometry" />
        </mxCell>
        <mxCell id="w3vZ8yK1GaBub7MYn9hq-62" value="" style="endArrow=block;endFill=1;html=1;edgeStyle=orthogonalEdgeStyle;align=left;verticalAlign=top;rounded=0;exitX=0.3;exitY=0.835;exitDx=0;exitDy=0;exitPerimeter=0;" parent="1" edge="1">
          <mxGeometry x="-1" relative="1" as="geometry">
            <mxPoint x="700" y="390.0000000000001" as="sourcePoint" />
            <mxPoint x="1010" y="390" as="targetPoint" />
          </mxGeometry>
        </mxCell>
        <mxCell id="w3vZ8yK1GaBub7MYn9hq-66" value="" style="endArrow=none;html=1;rounded=0;entryX=0.5;entryY=1;entryDx=0;entryDy=0;dashed=1;dashPattern=8 8;" parent="1" target="w3vZ8yK1GaBub7MYn9hq-65" edge="1">
          <mxGeometry width="50" height="50" relative="1" as="geometry">
            <mxPoint x="1154.66" y="520" as="sourcePoint" />
            <mxPoint x="1154.66" y="90" as="targetPoint" />
          </mxGeometry>
        </mxCell>
        <mxCell id="w3vZ8yK1GaBub7MYn9hq-65" value="" style="html=1;points=[[0,0,0,0,5],[0,1,0,0,-5],[1,0,0,0,5],[1,1,0,0,-5]];perimeter=orthogonalPerimeter;outlineConnect=0;targetShapes=umlLifeline;portConstraint=eastwest;newEdgeStyle={&quot;curved&quot;:0,&quot;rounded&quot;:0};" parent="1" vertex="1">
          <mxGeometry x="1150" y="240" width="10" height="60" as="geometry" />
        </mxCell>
        <mxCell id="w3vZ8yK1GaBub7MYn9hq-68" value="" style="endArrow=none;html=1;rounded=0;entryX=0.5;entryY=1;entryDx=0;entryDy=0;dashed=1;dashPattern=8 8;" parent="1" source="w3vZ8yK1GaBub7MYn9hq-65" target="w3vZ8yK1GaBub7MYn9hq-67" edge="1">
          <mxGeometry width="50" height="50" relative="1" as="geometry">
            <mxPoint x="1155" y="230" as="sourcePoint" />
            <mxPoint x="1154.66" y="90" as="targetPoint" />
          </mxGeometry>
        </mxCell>
        <mxCell id="w3vZ8yK1GaBub7MYn9hq-67" value="" style="html=1;points=[[0,0,0,0,5],[0,1,0,0,-5],[1,0,0,0,5],[1,1,0,0,-5]];perimeter=orthogonalPerimeter;outlineConnect=0;targetShapes=umlLifeline;portConstraint=eastwest;newEdgeStyle={&quot;curved&quot;:0,&quot;rounded&quot;:0};" parent="1" vertex="1">
          <mxGeometry x="1150" y="140" width="10" height="60" as="geometry" />
        </mxCell>
        <mxCell id="w3vZ8yK1GaBub7MYn9hq-69" value="" style="endArrow=block;endFill=1;html=1;edgeStyle=orthogonalEdgeStyle;align=left;verticalAlign=top;rounded=0;exitX=0.3;exitY=0.835;exitDx=0;exitDy=0;exitPerimeter=0;" parent="1" edge="1">
          <mxGeometry x="-1" relative="1" as="geometry">
            <mxPoint x="840" y="240.0000000000001" as="sourcePoint" />
            <mxPoint x="1150" y="240" as="targetPoint" />
          </mxGeometry>
        </mxCell>
        <mxCell id="w3vZ8yK1GaBub7MYn9hq-70" value="" style="endArrow=block;endFill=1;html=1;edgeStyle=orthogonalEdgeStyle;align=left;verticalAlign=top;rounded=0;" parent="1" edge="1">
          <mxGeometry x="-1" relative="1" as="geometry">
            <mxPoint x="850" y="144" as="sourcePoint" />
            <mxPoint x="1150" y="144.29000000000002" as="targetPoint" />
          </mxGeometry>
        </mxCell>
        <mxCell id="w3vZ8yK1GaBub7MYn9hq-71" value="取得商品資料(目錄編號&lt;span style=&quot;background-color: transparent; color: light-dark(rgb(0, 0, 0), rgb(255, 255, 255));&quot;&gt;)&lt;/span&gt;" style="text;html=1;align=center;verticalAlign=middle;resizable=0;points=[];autosize=1;strokeColor=none;fillColor=none;" parent="1" vertex="1">
          <mxGeometry x="850" y="120" width="150" height="30" as="geometry" />
        </mxCell>
        <mxCell id="w3vZ8yK1GaBub7MYn9hq-72" value="" style="endArrow=block;endFill=1;html=1;edgeStyle=orthogonalEdgeStyle;align=left;verticalAlign=top;rounded=0;dashed=1;dashPattern=8 8;" parent="1" edge="1">
          <mxGeometry x="-1" relative="1" as="geometry">
            <mxPoint x="1150" y="189" as="sourcePoint" />
            <mxPoint x="850" y="189" as="targetPoint" />
          </mxGeometry>
        </mxCell>
        <mxCell id="w3vZ8yK1GaBub7MYn9hq-73" value="" style="endArrow=block;endFill=1;html=1;edgeStyle=orthogonalEdgeStyle;align=left;verticalAlign=top;rounded=0;dashed=1;dashPattern=8 8;" parent="1" edge="1">
          <mxGeometry x="-1" relative="1" as="geometry">
            <mxPoint x="1000" y="410" as="sourcePoint" />
            <mxPoint x="700" y="410" as="targetPoint" />
          </mxGeometry>
        </mxCell>
        <mxCell id="w3vZ8yK1GaBub7MYn9hq-74" value="加入購物車(編號、數量&lt;span style=&quot;background-color: transparent; color: light-dark(rgb(0, 0, 0), rgb(255, 255, 255));&quot;&gt;)&lt;/span&gt;" style="text;html=1;align=center;verticalAlign=middle;resizable=0;points=[];autosize=1;strokeColor=none;fillColor=none;" parent="1" vertex="1">
          <mxGeometry x="700" y="340" width="150" height="30" as="geometry" />
        </mxCell>
        <mxCell id="w3vZ8yK1GaBub7MYn9hq-75" value="取得購物車項目(&lt;span style=&quot;background-color: transparent; color: light-dark(rgb(0, 0, 0), rgb(255, 255, 255));&quot;&gt;)&lt;/span&gt;" style="text;html=1;align=center;verticalAlign=middle;resizable=0;points=[];autosize=1;strokeColor=none;fillColor=none;" parent="1" vertex="1">
          <mxGeometry x="700" y="370" width="120" height="30" as="geometry" />
        </mxCell>
        <mxCell id="w3vZ8yK1GaBub7MYn9hq-76" value="" style="html=1;points=[[0,0,0,0,5],[0,1,0,0,-5],[1,0,0,0,5],[1,1,0,0,-5]];perimeter=orthogonalPerimeter;outlineConnect=0;targetShapes=umlLifeline;portConstraint=eastwest;newEdgeStyle={&quot;curved&quot;:0,&quot;rounded&quot;:0};" parent="1" vertex="1">
          <mxGeometry x="1150" y="440" width="10" height="30" as="geometry" />
        </mxCell>
        <mxCell id="w3vZ8yK1GaBub7MYn9hq-77" value="" style="endArrow=block;endFill=1;html=1;edgeStyle=orthogonalEdgeStyle;align=left;verticalAlign=top;rounded=0;" parent="1" edge="1">
          <mxGeometry x="-1" relative="1" as="geometry">
            <mxPoint x="700" y="440" as="sourcePoint" />
            <mxPoint x="1150" y="440.34" as="targetPoint" />
            <Array as="points" />
          </mxGeometry>
        </mxCell>
        <mxCell id="w3vZ8yK1GaBub7MYn9hq-80" value="取得購物車商品資料(&lt;span style=&quot;background-color: transparent; color: light-dark(rgb(0, 0, 0), rgb(255, 255, 255));&quot;&gt;)&lt;/span&gt;" style="text;html=1;align=center;verticalAlign=middle;resizable=0;points=[];autosize=1;strokeColor=none;fillColor=none;" parent="1" vertex="1">
          <mxGeometry x="700" y="420" width="140" height="30" as="geometry" />
        </mxCell>
        <mxCell id="w3vZ8yK1GaBub7MYn9hq-81" value="" style="endArrow=block;endFill=1;html=1;edgeStyle=orthogonalEdgeStyle;align=left;verticalAlign=top;rounded=0;dashed=1;dashPattern=8 8;" parent="1" edge="1">
          <mxGeometry x="-1" relative="1" as="geometry">
            <mxPoint x="1140" y="470" as="sourcePoint" />
            <mxPoint x="700" y="470" as="targetPoint" />
          </mxGeometry>
        </mxCell>
        <mxCell id="w3vZ8yK1GaBub7MYn9hq-88" value="" style="endArrow=none;html=1;rounded=0;entryX=0.5;entryY=1;entryDx=0;entryDy=0;dashed=1;dashPattern=8 8;" parent="1" target="w3vZ8yK1GaBub7MYn9hq-87" edge="1">
          <mxGeometry width="50" height="50" relative="1" as="geometry">
            <mxPoint x="350" y="520" as="sourcePoint" />
            <mxPoint x="350" y="90" as="targetPoint" />
          </mxGeometry>
        </mxCell>
        <mxCell id="w3vZ8yK1GaBub7MYn9hq-87" value="" style="html=1;points=[[0,0,0,0,5],[0,1,0,0,-5],[1,0,0,0,5],[1,1,0,0,-5]];perimeter=orthogonalPerimeter;outlineConnect=0;targetShapes=umlLifeline;portConstraint=eastwest;newEdgeStyle={&quot;curved&quot;:0,&quot;rounded&quot;:0};" parent="1" vertex="1">
          <mxGeometry x="340" y="480" width="20" height="30" as="geometry" />
        </mxCell>
        <mxCell id="w3vZ8yK1GaBub7MYn9hq-89" value="" style="endArrow=block;endFill=1;html=1;edgeStyle=orthogonalEdgeStyle;align=left;verticalAlign=top;rounded=0;entryX=1;entryY=0;entryDx=0;entryDy=5;entryPerimeter=0;exitX=0;exitY=1;exitDx=0;exitDy=-5;exitPerimeter=0;" parent="1" source="w3vZ8yK1GaBub7MYn9hq-56" target="w3vZ8yK1GaBub7MYn9hq-87" edge="1">
          <mxGeometry x="-1" relative="1" as="geometry">
            <mxPoint x="690" y="489" as="sourcePoint" />
            <mxPoint x="370" y="488.82" as="targetPoint" />
          </mxGeometry>
        </mxCell>
        <mxCell id="w3vZ8yK1GaBub7MYn9hq-90" value="顯示購物車(&lt;span style=&quot;background-color: transparent; color: light-dark(rgb(0, 0, 0), rgb(255, 255, 255));&quot;&gt;)&lt;/span&gt;" style="text;html=1;align=center;verticalAlign=middle;resizable=0;points=[];autosize=1;strokeColor=none;fillColor=none;" parent="1" vertex="1">
          <mxGeometry x="375" y="460" width="90" height="30" as="geometry" />
        </mxCell>
        <mxCell id="w3vZ8yK1GaBub7MYn9hq-91" value="" style="endArrow=classic;html=1;rounded=0;entryX=0;entryY=0;entryDx=0;entryDy=5;entryPerimeter=0;" parent="1" target="w3vZ8yK1GaBub7MYn9hq-56" edge="1">
          <mxGeometry width="50" height="50" relative="1" as="geometry">
            <mxPoint x="502" y="365" as="sourcePoint" />
            <mxPoint x="630" y="330" as="targetPoint" />
          </mxGeometry>
        </mxCell>
        <mxCell id="rR87RErqenFPHJM5NCkh-4" value="" style="endArrow=none;html=1;rounded=0;dashed=1;dashPattern=8 8;" parent="1" target="rR87RErqenFPHJM5NCkh-2" edge="1">
          <mxGeometry width="50" height="50" relative="1" as="geometry">
            <mxPoint x="204.8" y="520" as="sourcePoint" />
            <mxPoint x="205" y="190" as="targetPoint" />
          </mxGeometry>
        </mxCell>
        <mxCell id="rR87RErqenFPHJM5NCkh-2" value="" style="html=1;points=[[0,0,0,0,5],[0,1,0,0,-5],[1,0,0,0,5],[1,1,0,0,-5]];perimeter=orthogonalPerimeter;outlineConnect=0;targetShapes=umlLifeline;portConstraint=eastwest;newEdgeStyle={&quot;curved&quot;:0,&quot;rounded&quot;:0};" parent="1" vertex="1">
          <mxGeometry x="200" y="230" width="10" height="30" as="geometry" />
        </mxCell>
      </root>
    </mxGraphModel>
  </diagram>
  <diagram id="rd1o8XnuEXkNW5BMjjL5" name="溝通圖">
    <mxGraphModel dx="1577" dy="794" grid="1" gridSize="10" guides="1" tooltips="1" connect="1" arrows="1" fold="1" page="1" pageScale="1" pageWidth="827" pageHeight="1169" math="0" shadow="0">
      <root>
        <mxCell id="0" />
        <mxCell id="1" parent="0" />
        <mxCell id="rwD80DSUVr8evJeG0rF4-1" value="«boundary»&lt;br&gt;&lt;b&gt;: 商品目錄介面&lt;/b&gt;" style="html=1;whiteSpace=wrap;" parent="1" vertex="1">
          <mxGeometry x="330" y="420" width="110" height="100" as="geometry" />
        </mxCell>
        <mxCell id="uUbRcsQF1trPnpCVvuqA-1" value="«boundary»&lt;br&gt;&lt;b&gt;: 購物車介面&lt;/b&gt;" style="html=1;whiteSpace=wrap;" parent="1" vertex="1">
          <mxGeometry x="930" y="860" width="110" height="50" as="geometry" />
        </mxCell>
        <mxCell id="uUbRcsQF1trPnpCVvuqA-2" value="«boundary»&lt;br&gt;&lt;b&gt;: 詳細資料介面&lt;/b&gt;" style="html=1;whiteSpace=wrap;" parent="1" vertex="1">
          <mxGeometry x="630" y="690" width="110" height="50" as="geometry" />
        </mxCell>
        <mxCell id="uUbRcsQF1trPnpCVvuqA-3" value="«control»&lt;br&gt;&lt;b&gt;: 購物車控制&lt;/b&gt;" style="html=1;whiteSpace=wrap;" parent="1" vertex="1">
          <mxGeometry x="930" y="690" width="110" height="50" as="geometry" />
        </mxCell>
        <mxCell id="uUbRcsQF1trPnpCVvuqA-4" value="«control»&lt;br&gt;&lt;b&gt;: 商品資料控制&lt;/b&gt;" style="html=1;whiteSpace=wrap;" parent="1" vertex="1">
          <mxGeometry x="630" y="430" width="110" height="90" as="geometry" />
        </mxCell>
        <mxCell id="uUbRcsQF1trPnpCVvuqA-5" value="«entity»&lt;br&gt;&lt;b&gt;: 購物車&lt;/b&gt;" style="html=1;whiteSpace=wrap;" parent="1" vertex="1">
          <mxGeometry x="1241" y="690" width="110" height="50" as="geometry" />
        </mxCell>
        <mxCell id="uUbRcsQF1trPnpCVvuqA-6" value="«entity»&lt;br&gt;&lt;b&gt;:&amp;nbsp;&lt;/b&gt;商品" style="html=1;whiteSpace=wrap;" parent="1" vertex="1">
          <mxGeometry x="930" y="430" width="110" height="90" as="geometry" />
        </mxCell>
        <mxCell id="cmF4dHvtcC1NylkZL5TI-1" value="客戶" style="shape=umlActor;verticalLabelPosition=bottom;verticalAlign=top;html=1;outlineConnect=0;" parent="1" vertex="1">
          <mxGeometry x="90" y="425" width="60" height="105" as="geometry" />
        </mxCell>
        <mxCell id="btob3ibPa8zv1vS6sA6b-1" value="1. 選擇目錄(編號)" style="text;html=1;align=center;verticalAlign=middle;resizable=0;points=[];autosize=1;strokeColor=none;fillColor=none;" parent="1" vertex="1">
          <mxGeometry x="150" y="410" width="120" height="30" as="geometry" />
        </mxCell>
        <mxCell id="btob3ibPa8zv1vS6sA6b-2" value="" style="endArrow=none;html=1;rounded=0;entryX=-0.012;entryY=0.142;entryDx=0;entryDy=0;entryPerimeter=0;" parent="1" target="rwD80DSUVr8evJeG0rF4-1" edge="1">
          <mxGeometry width="50" height="50" relative="1" as="geometry">
            <mxPoint x="150" y="434" as="sourcePoint" />
            <mxPoint x="330" y="440" as="targetPoint" />
          </mxGeometry>
        </mxCell>
        <mxCell id="KtgPhqh1S4HzarEFze-B-1" value="" style="endArrow=none;html=1;rounded=0;exitX=1;exitY=0;exitDx=0;exitDy=0;entryX=0;entryY=0.25;entryDx=0;entryDy=0;" parent="1" target="uUbRcsQF1trPnpCVvuqA-4" edge="1">
          <mxGeometry width="50" height="50" relative="1" as="geometry">
            <mxPoint x="440" y="454.29" as="sourcePoint" />
            <mxPoint x="580" y="454.29" as="targetPoint" />
          </mxGeometry>
        </mxCell>
        <mxCell id="GPSJ4uzAUlhgxJcCb4z9-1" value="" style="endArrow=none;html=1;rounded=0;exitX=0;exitY=0.25;exitDx=0;exitDy=0;entryX=1;entryY=0.25;entryDx=0;entryDy=0;" parent="1" source="uUbRcsQF1trPnpCVvuqA-6" target="uUbRcsQF1trPnpCVvuqA-4" edge="1">
          <mxGeometry width="50" height="50" relative="1" as="geometry">
            <mxPoint x="610" y="500" as="sourcePoint" />
            <mxPoint x="660" y="450" as="targetPoint" />
          </mxGeometry>
        </mxCell>
        <mxCell id="ruA8EVx9SsPGhxajqflX-1" value="1.1 取得商品目錄(目錄編號&lt;span style=&quot;color: light-dark(rgb(0, 0, 0), rgb(255, 255, 255)); background-color: transparent;&quot;&gt;)&lt;/span&gt;" style="text;html=1;align=center;verticalAlign=middle;resizable=0;points=[];autosize=1;strokeColor=none;fillColor=none;" parent="1" vertex="1">
          <mxGeometry x="440" y="430" width="170" height="30" as="geometry" />
        </mxCell>
        <mxCell id="J1KxfH8iiNYJGkJf1TgS-1" value="1.1.1取得商品資料(目錄編號&lt;span style=&quot;background-color: transparent; color: light-dark(rgb(0, 0, 0), rgb(255, 255, 255));&quot;&gt;)&lt;/span&gt;" style="text;html=1;align=center;verticalAlign=middle;resizable=0;points=[];autosize=1;strokeColor=none;fillColor=none;" parent="1" vertex="1">
          <mxGeometry x="740" y="430" width="180" height="30" as="geometry" />
        </mxCell>
        <mxCell id="J1KxfH8iiNYJGkJf1TgS-3" value="" style="endArrow=classic;html=1;rounded=0;" parent="1" edge="1">
          <mxGeometry width="50" height="50" relative="1" as="geometry">
            <mxPoint x="470" y="425" as="sourcePoint" />
            <mxPoint x="535" y="425" as="targetPoint" />
          </mxGeometry>
        </mxCell>
        <mxCell id="J1KxfH8iiNYJGkJf1TgS-4" value="" style="endArrow=classic;html=1;rounded=0;" parent="1" edge="1">
          <mxGeometry width="50" height="50" relative="1" as="geometry">
            <mxPoint x="760" y="425.18" as="sourcePoint" />
            <mxPoint x="845" y="425" as="targetPoint" />
          </mxGeometry>
        </mxCell>
        <mxCell id="Qw4KedrK2Cs_oH3uwxV8-6" value="1.1.2 顯示商品目錄(&lt;span style=&quot;color: light-dark(rgb(0, 0, 0), rgb(255, 255, 255)); background-color: transparent;&quot;&gt;)&lt;/span&gt;" style="text;html=1;align=center;verticalAlign=middle;resizable=0;points=[];autosize=1;strokeColor=none;fillColor=none;" parent="1" vertex="1">
          <mxGeometry x="455" y="350" width="130" height="30" as="geometry" />
        </mxCell>
        <mxCell id="prGJZgZRgUULwNgNJI_6-2" value="" style="endArrow=none;html=1;rounded=0;entryX=0;entryY=0.5;entryDx=0;entryDy=0;" parent="1" edge="1">
          <mxGeometry width="50" height="50" relative="1" as="geometry">
            <mxPoint x="150" y="490" as="sourcePoint" />
            <mxPoint x="330" y="490" as="targetPoint" />
          </mxGeometry>
        </mxCell>
        <mxCell id="3qgaPJxqXsktvdlA0aFc-1" value="2. 選取商品(編號)" style="text;html=1;align=center;verticalAlign=middle;resizable=0;points=[];autosize=1;strokeColor=none;fillColor=none;" parent="1" vertex="1">
          <mxGeometry x="150" y="490" width="120" height="30" as="geometry" />
        </mxCell>
        <mxCell id="3qgaPJxqXsktvdlA0aFc-2" value="" style="endArrow=classic;html=1;rounded=0;entryX=0.935;entryY=1.012;entryDx=0;entryDy=0;entryPerimeter=0;" parent="1" edge="1">
          <mxGeometry width="50" height="50" relative="1" as="geometry">
            <mxPoint x="167.65" y="520" as="sourcePoint" />
            <mxPoint x="252.35000000000005" y="520.3599999999999" as="targetPoint" />
          </mxGeometry>
        </mxCell>
        <mxCell id="5xaJEeMi4lEwiKxKA0L4-2" value="" style="endArrow=none;html=1;rounded=0;exitX=1;exitY=0.75;exitDx=0;exitDy=0;" parent="1" source="rwD80DSUVr8evJeG0rF4-1" edge="1">
          <mxGeometry width="50" height="50" relative="1" as="geometry">
            <mxPoint x="590" y="500" as="sourcePoint" />
            <mxPoint x="630" y="495" as="targetPoint" />
          </mxGeometry>
        </mxCell>
        <mxCell id="r8a3dRMwEz1smX1S56LS-1" value="2.1 取得商品資料(商品編號&lt;span style=&quot;background-color: transparent; color: light-dark(rgb(0, 0, 0), rgb(255, 255, 255));&quot;&gt;)&lt;/span&gt;" style="text;html=1;align=center;verticalAlign=middle;resizable=0;points=[];autosize=1;strokeColor=none;fillColor=none;" parent="1" vertex="1">
          <mxGeometry x="440" y="500" width="170" height="30" as="geometry" />
        </mxCell>
        <mxCell id="r8a3dRMwEz1smX1S56LS-2" value="" style="endArrow=classic;html=1;rounded=0;" parent="1" edge="1">
          <mxGeometry width="50" height="50" relative="1" as="geometry">
            <mxPoint x="470" y="528.8199999999999" as="sourcePoint" />
            <mxPoint x="535" y="528.8199999999999" as="targetPoint" />
          </mxGeometry>
        </mxCell>
        <mxCell id="i-gx6ZjMAE6Cc1H1Bv5--1" value="2.1.1 取得商品資料(商品編號&lt;span style=&quot;background-color: transparent; color: light-dark(rgb(0, 0, 0), rgb(255, 255, 255));&quot;&gt;)&lt;/span&gt;" style="text;html=1;align=center;verticalAlign=middle;resizable=0;points=[];autosize=1;strokeColor=none;fillColor=none;" parent="1" vertex="1">
          <mxGeometry x="740" y="500" width="180" height="30" as="geometry" />
        </mxCell>
        <mxCell id="i-gx6ZjMAE6Cc1H1Bv5--2" value="" style="endArrow=none;html=1;rounded=0;exitX=0;exitY=0.25;exitDx=0;exitDy=0;entryX=1;entryY=0.25;entryDx=0;entryDy=0;" parent="1" edge="1">
          <mxGeometry width="50" height="50" relative="1" as="geometry">
            <mxPoint x="930" y="501" as="sourcePoint" />
            <mxPoint x="740" y="500" as="targetPoint" />
          </mxGeometry>
        </mxCell>
        <mxCell id="i-gx6ZjMAE6Cc1H1Bv5--4" value="" style="endArrow=classic;html=1;rounded=0;exitX=0.036;exitY=0.925;exitDx=0;exitDy=0;exitPerimeter=0;" parent="1" edge="1">
          <mxGeometry width="50" height="50" relative="1" as="geometry">
            <mxPoint x="750" y="530" as="sourcePoint" />
            <mxPoint x="838.52" y="531.2499999999999" as="targetPoint" />
          </mxGeometry>
        </mxCell>
        <mxCell id="E0eVVOQr7aMm8wkvoit2-1" value="" style="endArrow=none;html=1;rounded=0;entryX=0.5;entryY=1;entryDx=0;entryDy=0;exitX=0.5;exitY=0;exitDx=0;exitDy=0;" parent="1" source="uUbRcsQF1trPnpCVvuqA-2" target="uUbRcsQF1trPnpCVvuqA-4" edge="1">
          <mxGeometry width="50" height="50" relative="1" as="geometry">
            <mxPoint x="690" y="540" as="sourcePoint" />
            <mxPoint x="740" y="490" as="targetPoint" />
            <Array as="points" />
          </mxGeometry>
        </mxCell>
        <mxCell id="5OvCPB7qwTqBfPK5ZyHf-1" value="2.1.2 顯示詳細資料(&lt;span style=&quot;background-color: transparent; color: light-dark(rgb(0, 0, 0), rgb(255, 255, 255));&quot;&gt;)&lt;/span&gt;" style="text;html=1;align=center;verticalAlign=middle;resizable=0;points=[];autosize=1;strokeColor=none;fillColor=none;" parent="1" vertex="1">
          <mxGeometry x="685" y="610" width="130" height="30" as="geometry" />
        </mxCell>
        <mxCell id="5OvCPB7qwTqBfPK5ZyHf-2" value="" style="endArrow=classic;html=1;rounded=0;" parent="1" edge="1">
          <mxGeometry width="50" height="50" relative="1" as="geometry">
            <mxPoint x="660" y="584.9999999999999" as="sourcePoint" />
            <mxPoint x="660" y="655" as="targetPoint" />
          </mxGeometry>
        </mxCell>
        <mxCell id="xbZNvNF8SoIlIpDFUYFD-1" value="" style="endArrow=none;html=1;rounded=0;exitX=0.5;exitY=0;exitDx=0;exitDy=0;entryX=0.5;entryY=0;entryDx=0;entryDy=0;" parent="1" source="rwD80DSUVr8evJeG0rF4-1" target="uUbRcsQF1trPnpCVvuqA-4" edge="1">
          <mxGeometry width="50" height="50" relative="1" as="geometry">
            <mxPoint x="690" y="540" as="sourcePoint" />
            <mxPoint x="680" y="330" as="targetPoint" />
            <Array as="points">
              <mxPoint x="385" y="380" />
              <mxPoint x="685" y="380" />
            </Array>
          </mxGeometry>
        </mxCell>
        <mxCell id="xbZNvNF8SoIlIpDFUYFD-2" value="" style="endArrow=classic;html=1;rounded=0;" parent="1" edge="1">
          <mxGeometry width="50" height="50" relative="1" as="geometry">
            <mxPoint x="585" y="340" as="sourcePoint" />
            <mxPoint x="455" y="340" as="targetPoint" />
          </mxGeometry>
        </mxCell>
        <mxCell id="R0xyL8d4xniGNRk65Uy1-1" value="" style="endArrow=none;html=1;rounded=0;entryX=0;entryY=0.5;entryDx=0;entryDy=0;" parent="1" target="uUbRcsQF1trPnpCVvuqA-2" edge="1">
          <mxGeometry width="50" height="50" relative="1" as="geometry">
            <mxPoint x="120" y="550" as="sourcePoint" />
            <mxPoint x="740" y="490" as="targetPoint" />
            <Array as="points">
              <mxPoint x="120" y="720" />
            </Array>
          </mxGeometry>
        </mxCell>
        <mxCell id="yZNiYjwE7wPijkZLj5wb-1" value="3a. 輸入數量(數量)&lt;div&gt;3b.&amp;nbsp;&lt;span style=&quot;background-color: transparent; color: light-dark(rgb(0, 0, 0), rgb(255, 255, 255));&quot;&gt;訂購(編號)&lt;/span&gt;&lt;/div&gt;" style="text;html=1;align=left;verticalAlign=middle;resizable=0;points=[];autosize=1;strokeColor=none;fillColor=none;" parent="1" vertex="1">
          <mxGeometry x="150" y="685" width="120" height="40" as="geometry" />
        </mxCell>
        <mxCell id="yZNiYjwE7wPijkZLj5wb-2" value="" style="endArrow=classic;html=1;rounded=0;entryX=0.935;entryY=1.012;entryDx=0;entryDy=0;entryPerimeter=0;" parent="1" edge="1">
          <mxGeometry width="50" height="50" relative="1" as="geometry">
            <mxPoint x="150" y="680" as="sourcePoint" />
            <mxPoint x="234.5" y="680" as="targetPoint" />
          </mxGeometry>
        </mxCell>
        <mxCell id="TK_f2EaRAt17ba-AuHvu-1" value="" style="endArrow=none;html=1;rounded=0;exitX=0;exitY=0.25;exitDx=0;exitDy=0;entryX=1;entryY=0.25;entryDx=0;entryDy=0;" parent="1" source="uUbRcsQF1trPnpCVvuqA-3" target="uUbRcsQF1trPnpCVvuqA-2" edge="1">
          <mxGeometry width="50" height="50" relative="1" as="geometry">
            <mxPoint x="580" y="610" as="sourcePoint" />
            <mxPoint x="630" y="560" as="targetPoint" />
          </mxGeometry>
        </mxCell>
        <mxCell id="SkkbdxvCJbUovXNG6KxS-1" value="3.1 訂購(編號、數量)" style="text;html=1;align=center;verticalAlign=middle;resizable=0;points=[];autosize=1;strokeColor=none;fillColor=none;" parent="1" vertex="1">
          <mxGeometry x="740" y="670" width="140" height="30" as="geometry" />
        </mxCell>
        <mxCell id="Ce6EDwd3x8umyOpCgVHl-1" value="" style="endArrow=none;html=1;rounded=0;entryX=0;entryY=0.25;entryDx=0;entryDy=0;exitX=1;exitY=0.25;exitDx=0;exitDy=0;" parent="1" source="uUbRcsQF1trPnpCVvuqA-3" target="uUbRcsQF1trPnpCVvuqA-5" edge="1">
          <mxGeometry width="50" height="50" relative="1" as="geometry">
            <mxPoint x="1040" y="715" as="sourcePoint" />
            <mxPoint x="670" y="590" as="targetPoint" />
            <Array as="points" />
          </mxGeometry>
        </mxCell>
        <mxCell id="pUe59qJDcVepL2Xz_ck8-1" value="3.1.1 加入購物車(編號、數量&lt;span style=&quot;background-color: transparent; color: light-dark(rgb(0, 0, 0), rgb(255, 255, 255));&quot;&gt;)&lt;/span&gt;" style="text;html=1;align=center;verticalAlign=middle;resizable=0;points=[];autosize=1;strokeColor=none;fillColor=none;" parent="1" vertex="1">
          <mxGeometry x="1035" y="660" width="180" height="30" as="geometry" />
        </mxCell>
        <mxCell id="XxEXfElkfR-7v26WCK86-1" value="3.1.2 取得購物車項目(&lt;span style=&quot;background-color: transparent; color: light-dark(rgb(0, 0, 0), rgb(255, 255, 255));&quot;&gt;)&lt;/span&gt;" style="text;html=1;align=center;verticalAlign=middle;resizable=0;points=[];autosize=1;strokeColor=none;fillColor=none;" parent="1" vertex="1">
          <mxGeometry x="1035" y="680" width="150" height="30" as="geometry" />
        </mxCell>
        <mxCell id="XxEXfElkfR-7v26WCK86-2" value="" style="endArrow=none;html=1;rounded=0;exitX=0.5;exitY=0;exitDx=0;exitDy=0;entryX=0.5;entryY=1;entryDx=0;entryDy=0;" parent="1" source="uUbRcsQF1trPnpCVvuqA-3" target="uUbRcsQF1trPnpCVvuqA-6" edge="1">
          <mxGeometry width="50" height="50" relative="1" as="geometry">
            <mxPoint x="920" y="570" as="sourcePoint" />
            <mxPoint x="970" y="520" as="targetPoint" />
          </mxGeometry>
        </mxCell>
        <mxCell id="qqJ8SEKgsVJ4RcYhvbV_-1" value="3.1.3 取得購物車商品資料(&lt;span style=&quot;background-color: transparent; color: light-dark(rgb(0, 0, 0), rgb(255, 255, 255));&quot;&gt;)&lt;/span&gt;" style="text;html=1;align=center;verticalAlign=middle;resizable=0;points=[];autosize=1;strokeColor=none;fillColor=none;" parent="1" vertex="1">
          <mxGeometry x="975" y="569.5" width="170" height="30" as="geometry" />
        </mxCell>
        <mxCell id="iUXP5QRC-1YfYmorXk0F-2" value="" style="endArrow=none;html=1;rounded=0;entryX=0.5;entryY=1;entryDx=0;entryDy=0;" parent="1" source="uUbRcsQF1trPnpCVvuqA-1" target="uUbRcsQF1trPnpCVvuqA-3" edge="1">
          <mxGeometry width="50" height="50" relative="1" as="geometry">
            <mxPoint x="720" y="940" as="sourcePoint" />
            <mxPoint x="770" y="890" as="targetPoint" />
          </mxGeometry>
        </mxCell>
        <mxCell id="ySvJQdNToqO2aHO14gWM-1" value="3.1.4顯示購物車(&lt;span style=&quot;background-color: transparent; color: light-dark(rgb(0, 0, 0), rgb(255, 255, 255));&quot;&gt;)&lt;/span&gt;" style="text;html=1;align=center;verticalAlign=middle;resizable=0;points=[];autosize=1;strokeColor=none;fillColor=none;" parent="1" vertex="1">
          <mxGeometry x="985" y="800" width="120" height="30" as="geometry" />
        </mxCell>
        <mxCell id="ySvJQdNToqO2aHO14gWM-2" value="" style="endArrow=classic;html=1;rounded=0;" parent="1" edge="1">
          <mxGeometry width="50" height="50" relative="1" as="geometry">
            <mxPoint x="960" y="769.9999999999999" as="sourcePoint" />
            <mxPoint x="960" y="840" as="targetPoint" />
          </mxGeometry>
        </mxCell>
        <mxCell id="ySvJQdNToqO2aHO14gWM-3" value="" style="endArrow=classic;html=1;rounded=0;" parent="1" edge="1">
          <mxGeometry width="50" height="50" relative="1" as="geometry">
            <mxPoint x="960" y="650" as="sourcePoint" />
            <mxPoint x="960" y="570" as="targetPoint" />
          </mxGeometry>
        </mxCell>
        <mxCell id="ySvJQdNToqO2aHO14gWM-4" value="" style="endArrow=classic;html=1;rounded=0;" parent="1" edge="1">
          <mxGeometry width="50" height="50" relative="1" as="geometry">
            <mxPoint x="1040" y="660" as="sourcePoint" />
            <mxPoint x="1105" y="660" as="targetPoint" />
          </mxGeometry>
        </mxCell>
        <mxCell id="ySvJQdNToqO2aHO14gWM-7" value="" style="endArrow=classic;html=1;rounded=0;entryX=0.935;entryY=1.012;entryDx=0;entryDy=0;entryPerimeter=0;" parent="1" edge="1">
          <mxGeometry width="50" height="50" relative="1" as="geometry">
            <mxPoint x="160" y="400" as="sourcePoint" />
            <mxPoint x="244.70000000000005" y="400.3599999999999" as="targetPoint" />
          </mxGeometry>
        </mxCell>
        <mxCell id="0JizdWyuQHR1U2DEoeti-1" value="" style="endArrow=classic;html=1;rounded=0;exitX=0.036;exitY=0.925;exitDx=0;exitDy=0;exitPerimeter=0;" parent="1" edge="1">
          <mxGeometry width="50" height="50" relative="1" as="geometry">
            <mxPoint x="750" y="670" as="sourcePoint" />
            <mxPoint x="839" y="670" as="targetPoint" />
          </mxGeometry>
        </mxCell>
        <mxCell id="qgYC9UsDU7hOZwRaA0ev-1" value="3a 3b那個不太確定" style="text;html=1;align=center;verticalAlign=middle;resizable=0;points=[];autosize=1;strokeColor=none;fillColor=none;" parent="1" vertex="1">
          <mxGeometry x="75" y="958" width="130" height="30" as="geometry" />
        </mxCell>
      </root>
    </mxGraphModel>
  </diagram>
</mxfile>
